<?xml version="1.0" encoding="UTF-8"?>
<svg width="277px" height="393px" viewBox="0 0 277 393" version="1.1" xmlns="http://www.w3.org/2000/svg" xmlns:xlink="http://www.w3.org/1999/xlink">
    <!-- Generator: Sketch 49.3 (51167) - http://www.bohemiancoding.com/sketch -->
    <title>Te-Tau-Ihu</title>
    <desc>Created with Sketch.</desc>
    <defs></defs>
    <g id="Page-1" stroke="none" stroke-width="1" fill="none" fill-rule="evenodd">
        <g id="Te-Tau-Ihu">
            <g id="base-copy-3">
                <rect id="Chatmens-box" stroke="#A5A5A5" stroke-width="0.7119" x="235.3" y="252.4" width="41.3" height="41.3"></rect>
                <g id="Waipounamu_and_Rekohu_x2F_Wharekauri" transform="translate(0.000000, 187.000000)" fill="#CCCCCC" fill-rule="nonzero">
                    <g id="Group" transform="translate(240.000000, 70.000000)">
                        <path d="M25.3,28.2 C25.3,28.3 25.4,28.4 25.4,28.4 C25.4,28.5 25.4,28.6 25.3,28.6 C25.3,28.6 25.2,28.6 25.2,28.7 C25.1,28.7 25.1,28.8 25,28.8 C25,28.8 24.9,28.8 24.9,28.9 C24.7,29 24.5,29.2 24.4,29.4 C24.3,29.5 24.3,29.6 24.2,29.6 C24.1,29.8 24,29.9 23.9,30.1 C23.9,30.2 23.9,30.3 24,30.3 C24.1,30.3 24.1,30.4 24,30.4 C24,30.5 24,30.6 23.9,30.6 C23.9,30.6 23.9,30.6 23.9,30.7 C23.9,30.8 23.9,30.9 23.9,31 C23.9,31.1 23.9,31.2 23.7,31.2 C23.6,31.2 23.6,31.2 23.6,31.3 C23.6,31.4 23.5,31.5 23.4,31.5 C23.3,31.5 23.2,31.5 23.2,31.5 C23.1,31.5 23,31.6 23,31.7 C23,31.9 23,31.9 22.8,32 C22.6,32.1 22.6,32.1 22.6,32.2 C22.6,32.3 22.6,32.3 22.5,32.4 C22.4,32.4 22.4,32.4 22.3,32.4 C22.2,32.4 22.2,32.2 22.1,32.2 C22,32.2 22,32.1 21.9,32.1 C21.9,32.1 21.9,32.1 21.8,32 C21.8,31.9 21.9,31.7 22,31.7 C22.1,31.7 22.2,31.5 22.2,31.4 C22.2,31.4 22.1,31.3 22.1,31.3 C22,31.3 21.9,31.3 21.8,31.3 C21.7,31.3 21.6,31.3 21.6,31.2 C21.6,31.1 21.6,31 21.7,31 C21.8,31 21.8,30.9 21.9,30.9 C22,30.8 22,30.7 22,30.7 C22,30.7 22,30.6 22,30.6 C22,30.5 22,30.5 21.9,30.5 C21.8,30.5 21.7,30.4 21.7,30.3 C21.7,30.3 21.7,30.3 21.7,30.2 C21.6,30.1 21.6,30 21.7,29.9 C21.8,29.8 21.8,29.8 21.8,29.7 C21.8,29.6 21.8,29.6 21.7,29.6 C21.6,29.6 21.6,29.6 21.5,29.6 C21.4,29.6 21.4,29.5 21.4,29.4 C21.4,29.4 21.5,29.3 21.5,29.3 C21.5,29.3 21.6,29.3 21.6,29.2 C21.6,29 21.7,29 21.8,28.9 C21.8,28.9 21.9,28.9 21.9,28.9 C22,28.9 22.1,28.8 22.3,28.8 C22.3,28.8 22.4,28.7 22.4,28.7 C22.4,28.6 22.4,28.6 22.4,28.5 C22.4,28.4 22.4,28.3 22.2,28.3 C22,28.2 21.9,28.1 21.8,27.9 C21.8,27.8 21.8,27.8 21.7,27.7 C21.6,27.7 21.4,27.6 21.3,27.6 C21.1,27.6 21,27.4 21.1,27.3 C21.1,27.3 21.1,27.2 21.2,27.2 C21.2,27.2 21.3,27.2 21.3,27.2 C21.4,27.2 21.4,27.3 21.5,27.3 C21.6,27.3 21.7,27.3 21.8,27.3 C21.9,27.2 22.1,27.2 22.3,27.2 C22.4,27.2 22.5,27.2 22.5,27.2 C22.5,27.2 22.6,27.2 22.6,27.2 C22.6,27.1 22.7,27.1 22.8,27.1 C22.9,27.1 23,27 23,26.9 C23.1,26.8 23.1,26.7 23.2,26.6 C23.2,26.6 23.2,26.6 23.2,26.6 C23.3,26.6 23.5,26.5 23.7,26.6 C23.7,26.6 23.8,26.7 23.9,26.7 C24.1,26.8 24.2,26.9 24.3,27.1 C24.3,27.1 24.3,27.2 24.3,27.2 C24.3,27.2 24.3,27.3 24.3,27.3 C24.4,27.5 24.6,27.7 24.7,27.9 C24.8,28 24.8,28 24.8,28.1 C24.8,28.1 24.8,28.2 24.9,28.2 C25,28.4 25.1,28.4 25.3,28.3 C25.4,28.3 25.5,28.3 25.5,28.4 C25.4,28.1 25.4,28.2 25.3,28.2 Z" id="Shape"></path>
                        <path d="M24.5,31.6 C24.6,31.6 24.7,31.6 24.7,31.7 C24.7,31.8 24.8,31.8 24.8,31.8 C24.8,31.8 24.9,31.8 24.9,31.9 C24.9,31.9 24.9,32 24.9,32 C24.8,32.1 24.8,32.1 24.9,32.2 C25,32.3 25.1,32.4 25,32.6 C24.9,32.7 24.8,32.8 24.7,32.7 C24.7,32.7 24.6,32.7 24.6,32.6 C24.6,32.5 24.5,32.5 24.4,32.5 C24.4,32.5 24.3,32.5 24.3,32.4 C24.2,32.4 24.2,32.3 24.2,32.2 C24.2,32 24.3,31.9 24.3,31.7 C24.4,31.6 24.5,31.5 24.5,31.6 Z" id="Shape"></path>
                        <path d="M24.2,3.1 C24.1,3 24,3 24,2.9 C24,2.9 24,2.9 24,2.9 C23.9,2.9 23.9,2.8 23.8,2.7 C23.8,2.7 23.8,2.6 23.7,2.6 C23.7,2.6 23.6,2.6 23.6,2.7 C23.6,2.7 23.5,2.8 23.5,2.9 C23.5,2.9 23.4,2.9 23.4,2.9 C23.3,2.9 23.2,2.9 23.1,2.9 C23,2.9 23,2.9 22.9,2.9 C22.9,2.9 22.8,2.8 22.8,2.8 C22.7,2.7 22.6,2.7 22.5,2.7 C22.5,2.7 22.4,2.7 22.4,2.7 C22.3,2.7 22.3,2.6 22.2,2.6 C22.1,2.6 22,2.7 22,2.8 C22,2.9 21.9,3 21.8,3 C21.7,3 21.6,2.9 21.6,2.8 C21.6,2.7 21.5,2.7 21.4,2.7 C21.3,2.7 21.3,2.8 21.3,2.8 C21.4,3.1 21.1,3.3 20.9,3.2 C20.9,3.2 20.8,3.2 20.8,3.2 C20.7,3.2 20.7,3.2 20.6,3.3 C20.6,3.4 20.5,3.4 20.4,3.4 C20.2,3.4 20,3.4 19.8,3.4 C19.8,3.4 19.7,3.4 19.7,3.3 C19.6,3.1 19.4,3 19.3,2.9 C19.2,2.9 19.2,2.9 19.1,2.9 C19,2.9 18.9,2.9 18.9,2.8 C18.8,2.7 18.6,2.7 18.6,2.8 C18.6,2.8 18.6,2.9 18.6,2.9 C18.6,2.9 18.6,3 18.5,3 C18.4,3.1 18.2,3.1 18.1,3.2 C17.9,3.3 17.7,3.2 17.6,3.2 C17.5,3.2 17.5,3.2 17.4,3.2 C17.1,3.2 16.9,3.3 16.6,3.3 C16.4,3.4 16.1,3.3 15.9,3.3 C15.7,3.3 15.5,3.3 15.4,3.2 C15,3.1 14.7,3 14.3,2.9 C14.1,2.8 14,2.7 13.9,2.6 C13.9,2.5 13.8,2.4 13.8,2.3 C13.8,2.2 13.9,2.2 13.9,2.1 C13.9,2.1 13.9,2 13.9,2 C13.9,2 13.8,2 13.8,2 C13.8,2 13.7,2 13.7,2 C13.6,2 13.6,2.1 13.5,2.1 C13.3,2.1 13.1,2.1 12.9,2.1 C12.8,2.1 12.7,2.1 12.5,2.1 C12.4,2.1 12.3,2.1 12.3,2.1 C12.2,2.1 12,2.1 12,1.9 C12,1.9 11.9,1.8 11.9,1.8 C11.8,1.8 11.6,1.7 11.5,1.7 C11.3,1.7 11.2,1.6 11.1,1.4 C11,1.3 10.9,1.3 10.8,1.3 C10.6,1.3 10.4,1.3 10.2,1.3 C10,1.3 9.8,1.2 9.8,1 C9.8,1 9.7,0.9 9.7,0.9 C9.6,0.9 9.6,0.9 9.5,0.8 C9.5,0.7 9.4,0.7 9.3,0.7 C9.2,0.7 9.2,0.7 9.1,0.7 C9.1,0.7 9.1,0.8 9.1,0.8 C9.1,0.9 9.1,0.9 9.1,1 C9.1,1 9.1,1.1 9.1,1.1 C9.1,1.1 9,1.1 9,1.1 C8.9,1.1 8.9,1.1 8.8,1.1 C8.8,1.1 8.8,1.2 8.8,1.3 C8.8,1.4 8.9,1.4 8.9,1.5 C8.9,1.6 8.9,1.6 8.9,1.7 C8.9,1.7 8.9,1.8 8.9,1.8 C8.9,1.9 9,2 9,2 C9.1,2.1 9.1,2.1 9,2.2 C8.9,2.4 8.8,2.5 8.8,2.6 C8.6,2.9 8.4,3 8.1,3.2 C8.1,3.2 8,3.2 8,3.2 C7.9,3.2 7.8,3.2 7.7,3.3 C7.5,3.4 7.4,3.4 7.2,3.4 C7.2,3.4 7.1,3.4 7.1,3.4 C7,3.4 7,3.5 6.9,3.5 C6.8,3.5 6.6,3.6 6.5,3.6 C6.4,3.6 6.2,3.7 6.1,3.8 C6.1,3.8 6,3.9 6,3.9 C5.8,3.9 5.5,4 5.3,4 C5,4 4.7,4 4.5,3.9 C4.3,3.8 4.2,3.8 4,3.8 C3.8,3.7 3.6,3.7 3.4,3.5 C3.3,3.4 3.2,3.3 3.3,3.2 C3.3,3.1 3.3,3 3.1,3 C3,3 3,3 2.9,3 C2.7,3 2.7,3.1 2.7,3.2 C2.7,3.2 2.6,3.2 2.6,3.2 C2.5,3.2 2.5,3.3 2.5,3.3 C2.5,3.4 2.5,3.4 2.5,3.4 C2.5,3.4 2.5,3.5 2.5,3.5 C2.5,3.5 2.6,3.5 2.6,3.5 C2.7,3.5 2.8,3.6 2.8,3.6 C2.9,3.8 3,4.1 3,4.4 C3,4.7 2.8,4.8 2.6,4.8 C2.5,4.8 2.5,4.8 2.4,4.8 C2.3,4.8 2.2,4.8 2.1,4.8 C1.9,4.8 1.8,4.8 1.6,4.8 C1.4,4.8 1.3,4.8 1.1,4.9 C1,4.9 0.9,5 0.7,5.1 C0.7,5.1 0.7,5.2 0.7,5.2 C0.7,5.3 0.7,5.3 0.6,5.4 C0.6,5.4 0.5,5.5 0.6,5.5 C0.6,5.6 0.7,5.6 0.7,5.7 C0.7,5.7 0.7,5.8 0.7,5.8 C0.6,5.9 0.6,6 0.7,6.1 C0.7,6.1 0.7,6.1 0.8,6.2 C0.8,6.3 0.8,6.3 0.7,6.4 C0.7,6.4 0.6,6.4 0.6,6.4 C0.5,6.4 0.4,6.4 0.3,6.4 C0.2,6.4 0.2,6.5 0.1,6.6 C0.1,6.6 0.1,6.7 0.1,6.7 C0.1,6.7 0.2,6.8 0.2,6.8 C0.2,6.8 0.3,6.9 0.3,6.9 C0.4,6.9 0.6,6.9 0.7,6.9 C0.7,6.9 0.8,6.9 0.8,6.9 C0.8,6.9 0.8,7 0.8,7 C0.7,7 0.7,7.1 0.6,7.1 C0.5,7.1 0.5,7.2 0.5,7.3 C0.5,7.4 0.6,7.4 0.7,7.4 C0.9,7.4 1,7.3 1.2,7.3 C1.3,7.3 1.3,7.3 1.3,7.4 C1.3,7.5 1.4,7.5 1.5,7.6 C1.6,7.6 1.6,7.6 1.7,7.6 C1.8,7.6 1.9,7.6 1.9,7.5 C1.9,7.4 1.9,7.4 1.9,7.3 C1.9,7.3 1.9,7.2 1.9,7.2 C1.9,7.2 2,7.2 2,7.2 C2,7.2 2,7.2 2,7.2 C2,7.3 2.1,7.3 2.2,7.3 C2.2,7.3 2.2,7.3 2.3,7.3 C2.4,7.3 2.5,7.4 2.6,7.4 C2.7,7.4 2.8,7.4 2.9,7.5 C3,7.5 3,7.5 3.1,7.5 C3.3,7.3 3.6,7.3 3.9,7.2 C4,7.2 4.1,7.1 4.2,7 C4.2,7 4.2,6.9 4.2,6.9 C4.1,6.8 4,6.6 3.9,6.5 C3.9,6.5 3.9,6.4 3.9,6.4 C4,6.4 4.1,6.5 4.2,6.5 C4.4,6.6 4.6,6.6 4.7,6.7 C4.7,6.7 4.8,6.7 4.9,6.8 C5,6.8 5,6.8 5,6.9 C5,7 5.2,7.1 5.2,7 C5.3,6.9 5.5,6.9 5.6,6.8 C5.6,6.8 5.6,6.8 5.6,6.8 C5.7,6.8 5.8,6.8 5.8,6.8 C5.9,6.9 6.1,6.9 6.2,6.9 C6.4,6.9 6.5,6.9 6.7,6.7 C6.7,6.7 6.8,6.6 6.8,6.6 C6.9,6.6 6.9,6.6 7,6.5 C7.1,6.4 7,6.2 6.9,6.1 C6.8,6 6.8,6 6.8,5.8 C6.9,5.9 7,5.9 7.1,6 C7.1,6.1 7.2,6.1 7.3,6.2 C7.3,6.2 7.4,6.2 7.4,6.2 C7.5,6.2 7.6,6 7.5,5.9 C7.5,5.9 7.5,5.8 7.5,5.8 C7.5,5.7 7.5,5.7 7.5,5.6 C7.5,5.6 7.5,5.5 7.4,5.5 C7.4,5.5 7.4,5.4 7.4,5.4 C7.4,5.4 7.5,5.4 7.5,5.5 C7.6,5.6 7.6,5.7 7.7,5.8 C7.8,5.9 7.8,6 7.9,5.9 C8,5.9 8,5.8 8.1,5.7 C8.1,5.7 8.1,5.7 8.1,5.6 C8.1,5.5 8.1,5.5 8.1,5.4 C8.1,5.4 8.1,5.4 8.1,5.4 C8.1,5.5 8.1,5.6 8.2,5.7 C8.2,5.7 8.2,5.8 8.2,5.8 C8.2,5.9 8.3,5.9 8.5,5.9 C8.6,5.9 8.6,5.8 8.7,5.8 C8.7,5.8 8.7,5.7 8.8,5.7 C8.8,5.8 8.8,5.8 8.9,5.8 C9,6 9,6 9.2,5.9 C9.3,5.9 9.4,5.9 9.5,5.9 C9.6,6 9.7,6 9.9,6 C9.9,6 10,6 10,6 C10.1,6 10.2,6.1 10.3,6.2 C10.5,6.5 10.7,6.8 11,7.1 C11.2,7.4 11.4,7.7 11.6,8 C11.8,8.3 11.9,8.6 12.1,9 C12.2,9.3 12.4,9.5 12.4,9.8 C12.4,9.8 12.4,9.8 12.4,9.8 C12.4,9.9 12.4,9.9 12.4,10 C12.4,10.1 12.4,10.1 12.4,10.2 C12.4,10.3 12.5,10.4 12.6,10.5 C12.7,10.6 12.8,10.7 12.8,10.8 C12.8,11.1 12.9,11.4 12.8,11.7 C12.8,12 12.7,12.3 12.4,12.5 C12.3,12.6 12.2,12.6 12.2,12.6 C12.1,12.6 12,12.6 12,12.5 C12,12.5 12,12.4 12,12.4 C12,12.4 12,12.3 12,12.3 C11.9,12.2 11.8,12.2 11.7,12.2 C11.5,12.2 11.5,12.2 11.5,12.3 C11.5,12.3 11.5,12.4 11.4,12.4 C11.3,12.5 11.3,12.5 11.4,12.6 C11.5,12.7 11.4,12.8 11.4,12.9 C11.3,12.9 11.3,13 11.3,13.1 C11.3,13.1 11.3,13.2 11.2,13.2 C11.2,13.2 11.1,13.2 11.1,13.2 C11.1,13.2 11,13.2 11,13.2 C10.9,13.2 10.8,13.2 10.8,13.3 C10.7,13.4 10.6,13.5 10.4,13.5 C10.2,13.6 10.1,13.7 9.9,13.9 C9.9,13.9 9.8,14 9.8,14 C9.6,14.1 9.4,14.1 9.3,14.3 C9.3,14.4 9.2,14.4 9.1,14.4 C9,14.5 9,14.5 8.9,14.6 C8.8,14.7 8.7,14.8 8.6,14.8 C8.5,14.8 8.5,14.9 8.4,14.9 C8.3,14.9 8.3,15 8.2,15 C8,15 7.9,15.1 7.7,15.2 C7.6,15.3 7.6,15.5 7.7,15.6 C7.7,15.6 7.8,15.7 7.7,15.7 C7.7,15.8 7.7,15.9 7.7,15.9 C7.7,16 7.8,16.1 7.9,16.2 C8,16.3 8,16.4 8.1,16.5 C8.2,16.7 8.3,16.8 8.5,16.9 C8.6,16.9 8.6,16.9 8.6,17 C8.5,17.1 8.6,17.2 8.6,17.3 C8.6,17.4 8.6,17.5 8.6,17.6 C8.6,17.7 8.6,17.7 8.6,17.8 C8.6,17.9 8.6,17.9 8.6,17.9 C8.6,17.9 8.5,17.9 8.5,18 C8.5,18.1 8.5,18.1 8.5,18.2 C8.5,18.2 8.6,18.2 8.6,18.2 C8.6,18.2 8.6,18.2 8.7,18.2 C8.9,18.3 9,18.4 9.1,18.6 C9.1,18.6 9.1,18.7 9.1,18.7 C9.2,18.8 9.2,18.9 9.1,19 C9.1,19.1 9.1,19.1 9.1,19.2 C9.1,19.3 9.1,19.3 9.1,19.4 C9.1,19.5 9.1,19.6 9,19.7 C9,19.7 9,19.8 9,19.8 C9,19.8 9.1,19.8 9.1,19.8 C9.1,19.8 9.2,19.8 9.2,19.8 C9.3,19.9 9.3,20 9.4,20.1 C9.4,20.2 9.4,20.2 9.4,20.3 C9.3,20.4 9.3,20.5 9.4,20.6 C9.4,20.7 9.5,20.7 9.6,20.6 C9.6,20.6 9.7,20.5 9.7,20.5 C9.7,20.5 9.8,20.4 9.8,20.5 C9.8,20.5 9.9,20.5 9.9,20.6 C9.9,20.6 10,20.7 10,20.7 C10,20.9 10.1,20.9 10.3,20.8 C10.5,20.7 10.6,20.7 10.7,20.9 C10.7,21 10.7,21 10.8,21 C10.9,21 11,21 11.1,20.9 C11.1,20.8 11.2,20.8 11.2,20.9 C11.2,21 11.3,21.1 11.4,21 C11.4,21 11.4,21 11.4,21 C11.5,21 11.5,21 11.6,20.9 C11.6,20.9 11.7,20.8 11.7,20.8 C11.8,20.8 11.8,20.8 11.9,20.7 C11.9,20.7 12,20.6 12,20.6 C12.1,20.6 12.2,20.5 12.3,20.3 C12.3,20.3 12.3,20.2 12.4,20.2 C12.5,20.2 12.5,20.1 12.6,20.1 C12.7,20 12.8,20 12.9,19.9 C13,19.9 13,19.8 13.1,19.7 C13.1,19.7 13.1,19.6 13.1,19.6 C13.1,19.6 13.1,19.5 13.2,19.5 C13.3,19.5 13.3,19.4 13.3,19.4 C13.3,19.4 13.3,19.3 13.4,19.3 C13.4,19.2 13.5,19.2 13.6,19.3 C13.7,19.3 13.7,19.3 13.8,19.3 C14,19.2 14.2,19.1 14.3,18.9 C14.3,18.9 14.3,18.9 14.3,18.9 C14.4,18.8 14.4,18.8 14.5,18.9 C14.5,18.9 14.6,19 14.6,19 C14.7,19 14.7,18.9 14.7,18.9 C14.7,18.9 14.7,18.8 14.7,18.8 C14.8,18.7 14.9,18.5 15.1,18.4 C15.1,18.4 15.2,18.4 15.2,18.4 C15.3,18.4 15.4,18.4 15.5,18.3 C15.5,18.3 15.6,18.2 15.6,18.2 C15.7,18.2 15.9,18.1 16,18.1 C16.1,18 16.3,17.9 16.5,18 C16.6,18 16.7,18 16.8,17.9 C16.9,17.8 17,17.8 17.1,17.8 C17.2,17.8 17.3,17.8 17.4,17.7 C17.5,17.6 17.7,17.6 17.8,17.5 C18,17.4 18.2,17.4 18.4,17.5 C18.5,17.6 18.6,17.6 18.7,17.6 C18.8,17.6 18.9,17.5 19,17.6 C19.2,17.7 19.4,17.6 19.6,17.5 C19.7,17.4 19.8,17.3 20,17.3 C20,17.3 20.1,17.3 20.1,17.3 C20.2,17.3 20.2,17.4 20.3,17.4 C20.4,17.4 20.6,17.2 20.6,17.1 C20.6,17 20.6,17 20.6,16.9 C20.6,16.8 20.5,16.6 20.6,16.5 C20.7,16.4 20.6,16.3 20.5,16.3 C20.4,16.3 20.3,16.3 20.2,16.3 C20.2,16.3 20.1,16.3 20.1,16.3 C19.9,16.3 19.8,16.3 19.7,16.1 C19.7,16 19.6,16 19.6,16 C19.6,16 19.5,15.9 19.5,15.9 C19.4,15.8 19.4,15.8 19.3,15.9 C19.3,15.9 19.2,16 19.2,16 C19,16 18.9,16 18.7,15.9 C18.6,15.8 18.5,15.7 18.4,15.6 C18.3,15.5 18.3,15.5 18.2,15.4 C18,15 17.8,14.5 17.7,14.1 C17.5,13.5 17.5,12.8 17.4,12.2 C17.4,12 17.4,11.8 17.4,11.6 C17.4,11.4 17.4,11.4 17.2,11.4 C17.2,11.4 17.2,11.4 17.2,11.3 C17.2,11.3 17.2,11.2 17.2,11.2 C17.2,11.2 17.3,11.3 17.3,11.3 C17.3,11.2 17.4,11.2 17.4,11.1 C17.4,11.1 17.4,11.1 17.4,11.1 C17.4,11 17.4,10.8 17.4,10.7 C17.5,10 17.7,9.3 17.9,8.6 C18,8.2 18.2,7.9 18.3,7.6 C18.4,7.3 18.6,7 18.8,6.7 C19.1,6.2 19.4,5.8 19.7,5.4 C20.2,4.8 20.7,4.2 21.4,3.8 C21.6,3.7 21.8,3.6 22,3.6 C22.1,3.6 22.2,3.6 22.4,3.6 C22.7,3.5 23,3.7 23.1,4 C23.1,4.1 23.2,4.1 23.3,4.2 C23.4,4.3 23.5,4.2 23.5,4.1 C23.6,4 23.6,3.9 23.4,3.7 C23.3,3.5 23.3,3.2 23.5,3.1 C23.6,3.1 23.6,3 23.6,2.9 C23.7,2.8 23.7,2.7 23.8,2.6 C23.8,2.5 23.9,2.6 23.9,2.6 C24,2.7 24.1,2.7 24.2,2.6 C24.2,2.6 24.3,2.5 24.3,2.6 C24.4,2.7 24.5,2.6 24.6,2.5 C24.6,2.5 24.7,2.5 24.7,2.5 C24.7,2.5 24.8,2.6 24.8,2.6 C24.9,2.7 25,2.6 25,2.5 C24.2,3.3 24.2,3.2 24.2,3.1 Z M18.1,6.6 C18,6.6 17.9,6.7 17.9,6.7 C17.9,6.7 17.8,6.7 17.8,6.7 C17.7,6.6 17.7,6.6 17.6,6.7 C17.5,6.7 17.4,6.8 17.4,6.8 C17.2,6.9 17,7.1 16.8,7.3 C16.8,7.4 16.7,7.4 16.8,7.5 C16.8,7.5 16.8,7.6 16.8,7.6 C16.8,7.7 16.7,7.9 16.7,8 C16.7,8 16.6,8.1 16.6,8.1 C16.5,8.2 16.4,8.3 16.3,8.4 C16.3,8.4 16.3,8.4 16.2,8.5 C16.2,8.5 16.2,8.5 16.1,8.5 C16.1,8.5 16.1,8.5 16.1,8.5 C16.1,8.4 16,8.3 16,8.1 C16,8 15.9,8 15.9,8.1 C15.9,8.2 15.9,8.2 15.9,8.3 C15.9,8.5 16,8.6 16.1,8.8 C16.3,9.4 16.4,9.9 16.4,10.5 C16.4,10.8 16.3,11.1 16.1,11.3 C16.1,11.4 16,11.4 15.9,11.4 C15.8,11.4 15.8,11.6 15.9,11.7 C15.9,11.7 15.9,11.8 16,11.8 C16,11.8 16,11.8 16,11.8 C16,11.8 16,11.8 16,11.8 C16,11.9 16.1,11.9 16.2,11.9 C16.2,11.9 16.3,12 16.3,12 C16.3,12 16.3,12 16.3,12 C16.2,11.9 16.1,11.9 15.9,11.9 C15.8,11.9 15.7,12 15.7,12.1 C15.6,12.1 15.6,12.1 15.5,12.1 C15.5,12.1 15.4,12.1 15.4,12.1 C15.4,12.1 15.3,12.1 15.3,12.1 C15.3,12.1 15.3,12.2 15.3,12.2 C15.3,12.3 15.4,12.3 15.4,12.3 C15.4,12.3 15.5,12.3 15.6,12.4 C15.7,12.4 15.7,12.5 15.8,12.5 C15.8,12.7 15.8,12.7 16.1,12.6 C16.1,12.6 16.1,12.7 16.1,12.7 C15.9,12.8 16,13 16,13.2 C16,13.3 16,13.3 16,13.4 C16,13.5 16,13.5 16,13.5 C16,13.5 16,13.6 16,13.6 C16.1,13.7 16,13.8 15.9,13.9 C15.9,13.7 15.8,13.7 15.7,13.7 C15.6,13.7 15.6,13.7 15.6,13.8 C15.6,13.8 15.6,13.9 15.6,13.9 C15.6,13.9 15.6,14 15.6,14 C15.5,14 15.3,14 15.2,13.9 C15.1,13.9 15.1,13.8 15,13.8 C14.9,13.8 14.9,13.7 14.8,13.7 C14.7,13.7 14.7,13.7 14.7,13.6 C14.7,13.5 14.6,13.5 14.6,13.5 C14.6,13.5 14.5,13.6 14.5,13.5 C14.5,13.4 14.4,13.4 14.4,13.3 C14.4,13.2 14.4,13.1 14.4,13 C14.4,13 14.4,13 14.5,12.9 C14.5,12.9 14.6,12.9 14.6,12.8 C14.7,12.7 14.7,12.6 14.8,12.5 C14.8,12.5 14.9,12.4 14.9,12.4 C15,12.3 15,12.3 14.9,12.2 C14.8,12.1 14.8,12 14.8,11.8 C14.8,11.7 14.8,11.6 14.7,11.5 C14.7,11.5 14.7,11.4 14.7,11.4 C14.7,11.3 14.6,11.2 14.5,11.2 C14.4,11.1 14.3,11.1 14.2,10.9 C14.2,10.8 14.1,10.8 14,10.7 C13.9,10.6 13.8,10.6 13.8,10.5 C13.8,10.4 13.7,10.4 13.6,10.3 C13.5,10.2 13.4,10.2 13.4,10 C13.4,9.9 13.3,9.9 13.3,9.8 C13.3,9.7 13.3,9.7 13.2,9.6 C13.2,9.5 13.2,9.5 13.1,9.4 C13,9.2 12.9,9.1 13,8.9 C13,8.9 13,8.8 13,8.8 C13,8.8 13,8.7 13,8.7 C13,8.6 12.9,8.6 13,8.5 C13.1,8.3 13.2,8.1 13.4,7.9 C13.5,7.8 13.6,7.8 13.7,7.8 C13.7,7.8 13.8,7.8 13.8,7.8 C13.8,7.8 13.8,7.7 13.8,7.7 C13.8,7.7 13.7,7.6 13.7,7.6 C13.7,7.5 13.8,7.5 13.9,7.4 C13.9,7.4 14,7.4 14,7.4 C14,7.4 14.1,7.4 14.1,7.3 C14.1,7.3 14.1,7.2 14.1,7.2 C14,7.1 14.1,7 14.2,7 C14.3,7 14.4,7 14.5,7.1 C14.5,7.1 14.6,7.2 14.6,7.2 C14.6,7.2 14.7,7.1 14.7,7.1 C14.8,7 14.8,6.9 14.9,6.8 C15,6.6 15.2,6.5 15.4,6.5 C15.4,6.5 15.5,6.5 15.5,6.4 C15.6,6.3 15.6,6.3 15.7,6.3 C15.8,6.3 15.9,6.2 15.8,6.1 C15.7,5.9 15.6,5.9 15.4,5.9 C15.4,5.9 15.3,5.9 15.3,5.9 C15.2,5.8 15.1,5.9 14.9,5.9 C14.8,5.9 14.6,6 14.5,5.9 C14.4,5.9 14.3,5.9 14.3,5.8 C14.1,5.6 13.9,5.6 13.6,5.6 C13.3,5.6 13.1,5.7 12.8,5.6 C12.6,5.5 12.4,5.4 12.3,5.2 C12.3,5.1 12.3,5.1 12.3,5 C12.3,4.9 12.3,4.8 12.1,4.8 C11.9,4.8 11.7,4.6 11.7,4.4 C11.7,4.3 11.7,4.2 11.7,4.1 C11.7,3.9 11.8,3.8 11.9,3.6 C11.9,3.6 12,3.6 12,3.5 C12.1,3.5 12.1,3.4 12.1,3.3 C12.1,3.2 12.1,3 12,2.9 C12,2.9 12,2.8 12,2.8 C12.1,2.7 12.3,2.6 12.4,2.7 C12.5,2.8 12.6,2.8 12.7,2.8 C12.8,2.8 12.9,2.8 13,2.9 C13.1,3 13.3,3.1 13.4,3.2 C13.5,3.3 13.5,3.4 13.5,3.6 C13.5,3.7 13.5,3.8 13.6,3.9 C13.7,4 13.8,4 13.8,3.9 C13.9,3.8 13.9,3.8 14,3.7 C14.1,3.6 14.1,3.6 14.2,3.5 C14.2,3.5 14.3,3.4 14.3,3.4 C14.4,3.3 14.6,3.2 14.7,3.3 C15,3.4 15.2,3.5 15.5,3.4 C15.7,3.4 15.8,3.4 16,3.5 C16.3,3.7 16.5,3.8 16.8,4 C16.8,4 16.9,4 16.9,4.1 C17.3,4.3 17.5,4.5 17.7,4.9 C17.8,5.2 18,5.5 18.2,5.7 C18.3,5.8 18.3,5.9 18.3,5.9 C18.3,6.4 18.2,6.5 18.1,6.6 Z" id="Shape"></path>
                        <path d="M15.9,11.7 C15.9,11.7 15.8,11.8 15.8,11.8 C15.8,11.8 15.7,11.7 15.7,11.7 C15.7,11.7 15.8,11.6 15.8,11.6 C15.9,11.6 15.9,11.6 15.9,11.7 Z" id="Shape"></path>
                    </g>
                    <g id="Group">
                        <path d="M32.3,186.7 C31.8,186.6 31.5,186.6 31.1,186.6 C30.9,186.6 30.7,187.5 30.7,187.8 C30.6,188.3 30.5,188.8 30.5,189.4 C30.6,190 31.2,190.6 31.4,191.2 C31.8,192.1 31.9,193.2 31.6,194.2 C31.4,194.7 31.1,194.7 30.7,195 C30.4,195.2 30,194.7 29.8,194.4 C29.8,195.1 29.9,195.7 30.3,196.3 C30.5,196.7 31.1,197.3 30.7,197.6 C30.4,197.8 30,197.6 29.7,197.7 C28.8,197.8 28.6,198.3 28.2,199.1 C28.1,199.4 28.4,199.6 28.4,199.9 C28.5,200.3 28.5,200.7 28.5,201.1 C28.5,201.6 28.3,201.7 28,202 C27.8,202.2 27.4,202.3 27.3,202.5 C27.2,202.7 27.1,202.9 27,203.1 C26.9,203.2 26.7,203 26.6,203.2 C26.2,203.8 26.2,204.4 26.2,205.1 C26.2,205.5 27.9,205.8 28.2,205.7 C28.4,205.6 28.8,204.7 28.7,204.6 C28.5,204.3 28,204 28.2,203.6 C28.5,204 28.5,204.3 28.9,204 C29.4,203.7 29,203.4 29.2,203 C29.3,202.6 30.1,202.3 30.3,202 C30.6,201.6 31,201.7 31.4,201.6 C31.4,201.7 31.5,201.9 31.4,202 C32,201.8 34.2,202.7 34.6,201.8 C34.8,201.4 35.1,201.1 35.3,200.7 C35.5,200.2 36.4,200.1 36.8,199.9 C37,199.8 38.1,199.7 38.2,199.6 C38.4,199.3 39.4,199.6 39.7,199.4 C40.2,199.2 40,198.9 40.1,198.4 C40.1,198.3 41,198.4 41.2,198.3 C41,198.2 40.6,198 40.4,197.8 C40,197.3 40.4,197.4 40.9,197.4 C40.6,196.7 41.7,196.6 41.1,195.9 C40.8,195.5 40.4,194.9 39.9,194.8 C39.3,194.8 39.2,195.3 38.6,195.5 C38.5,195.5 38.1,195.4 38,195.3 C37.8,194.9 38.7,194.8 38.9,194.7 C38.5,194.5 38.2,194.4 37.8,194.3 C37.4,194.2 37.2,193.7 36.8,193.6 C36.4,193.5 36,194 35.7,194.2 C35.6,194.3 35.3,195 35.2,194.9 C35,194.8 34.7,194.7 34.5,194.6 C34.8,194.2 35.4,193.9 35.5,193.4 C35.7,192.8 35.7,192.2 36,191.6 C36.4,192.2 36.6,192.8 37.3,192.8 C37.2,192.3 39,192.6 39.3,192.6 C39.6,192.6 39.3,191.3 39.2,191.4 C38.4,191.6 38.4,191.2 37.9,190.7 C37.4,190.2 37,189.8 36.5,189.3 C36.2,189 36.2,188.9 36,188.5 C35.9,188.3 36.1,187.8 36,187.7 C35.6,187.2 35.3,186.8 34.9,186.4 C34.7,186.2 33.8,186 33.4,185.8 C33,185.4 32.6,186.4 32.3,186.7" id="Shape_152_"></path>
                        <path d="M175.9,27.5 C175,27.3 174.7,27.2 174.1,26.5 C173.3,25.6 173.5,25 173.4,23.8 C173.4,23.4 173.4,22.2 173.1,21.9 C172.6,21.5 172.3,21.4 172,20.8 C172,20.7 171.9,20.7 171.8,20.6 L166.9,20.2 L163.7,20.2 L157.3,21.2 L153.5,21.7 L148.9,23.1 L144.9,26.6 L141.5,26.9 L137.9,26.6 L135.5,23.4 L133.7,20.1 L132.7,17.3 L130,11.6 L128.5,6.8 L126.3,2.7 L124.1,0.3 C124.1,0.3 124.1,0.3 124.1,0.3 C124,1.1 124,1.9 124,2.8 C124,2.8 124,2.9 124,2.9 C124,3.2 124,3.4 124,3.7 C124.1,5.3 124,7 123.9,8.6 C123.9,9.2 124.1,9.9 124.1,10.6 C124,11.4 123.6,12.1 123.5,12.8 C123.4,13.4 123.6,14.6 123.1,15 C122.3,15.7 121.8,16.3 121.2,17.1 C120.3,18.4 119.9,20 119.1,21.3 C118.2,22.7 117.1,23.9 115.8,24.9 C115.3,25.3 114.7,25.7 114.2,26.2 C113.5,26.8 112.8,26.3 111.9,26.5 C111,26.6 110.6,26.9 109.8,26.8 C109,26.7 108.4,26.9 108.5,27.9 C108.6,28.7 108.7,29.4 108.5,30.3 C108.4,31.1 107.7,31.6 107.6,32.4 C107.3,34.1 107.3,35.8 106.5,37.2 C105.7,38.7 106.3,40.3 106,41.9 C105.7,43.6 104.8,44.7 104.3,46.2 C104.1,46.8 103.3,47.2 103.3,47.6 C103.3,48.5 102.8,49.1 102.6,49.9 C102.4,50.6 102.3,51.2 102,51.9 C101.9,52.2 101.8,52.7 101.5,53 C101.2,53.3 100.9,53.6 100.7,53.9 C100.4,54.7 100,55.3 99.5,55.9 C99.1,56.5 98.4,56.9 98,57.5 C97.5,58.2 97,58.8 96.4,59.4 C95.9,59.9 95.6,60.9 95.1,61.5 C94.6,62.1 94.5,62.8 94.1,63.3 C93.7,63.8 93,64.5 92.4,64.8 C91.7,65.1 90.8,65.4 90.3,66 C89.8,66.5 89.3,67.4 88.6,67.6 C87.7,67.9 87,68.1 86.1,68.1 C85.4,68.2 84.8,69.2 84.4,69.6 C83.9,70 83.1,70.6 82.5,70.9 C82.2,71 81.6,70.9 81.5,71.2 C81.2,71.6 81,71.9 80.7,72.2 C80.2,72.7 80.3,73.5 79.8,74.1 C79.6,74.3 79.3,74.5 79,74.7 C78.8,74.9 78.6,75 78.4,75.2 C78.2,75.3 78.4,75.6 78.3,75.7 C77.9,76.2 77.1,76.7 76.5,77.1 C76,77.4 75.6,78.5 75.2,79 C74.6,79.8 74.2,80 73.3,80.3 C73,80.4 72.6,80.4 72.2,80.4 C71.9,80.4 71.4,81 71.2,81.2 C69.8,82.3 69.8,84 68.9,85.4 C68.6,85.9 68.6,85.9 67.9,85.9 C67.6,85.9 67.4,86.4 67.3,86.7 C67.2,86.9 66.9,87.3 66.6,87.3 C66,87.3 65.7,87.2 65.3,87.6 C64.6,88.2 64.1,88.3 63.3,88.2 C62.6,88.2 61.8,88.9 61.3,89.2 C60.1,89.9 59.2,90.8 57.9,91.4 C57.4,91.6 56.9,92.6 56.5,93 C56,93.5 55.6,94.2 55.1,94.7 C54.6,95.1 53.8,95.8 54.2,96.6 C54.7,97.4 55.4,98.3 54,97.9 C52.9,97.6 52.5,96.4 51.4,97.3 C50.6,98 50.2,98.9 49.5,99.7 C49,100.3 47.9,100.3 47.1,100.5 C46.1,100.9 45.6,100.4 45.2,99.5 C43.8,100.4 42.8,101 41.2,101 C40.9,101 40.7,101 40.4,101 C39.7,101 40,101 39.7,101.5 C39.6,101.6 39.8,101.8 39.6,101.9 C39.4,102.1 39.3,102.2 39.1,102.4 C38.8,102.7 38.8,103 38.9,103.4 C38.9,103.6 37.9,104.5 37.8,104.8 C37.5,105.5 36.9,105.9 36.3,106.3 C35.8,106.7 35.3,107.1 34.9,107.7 C34.5,108.3 33.8,108.5 33.1,108.7 C33.3,109.4 34.6,109.1 34.6,110 C34.6,111.1 33.8,111 32.9,110.9 C31.8,110.9 32.6,111.8 31.9,112.3 C31.7,112.4 30.9,112.7 30.8,112.9 C30.7,113.2 30.5,113.7 30.3,113.9 C29.8,114.5 29.3,114.7 29.1,115.7 C29.1,115.9 29.1,116.1 29,116.3 C29,116.4 28.6,116.4 28.6,116.5 C28.5,116.8 28.6,117.4 28.6,117.7 C28.6,118.8 28.3,119.3 29.3,120 C29.9,120.4 31,121.2 30.5,122.1 C30.2,121 30.2,121 29.1,120.6 C28,120.2 28.1,120.1 27.8,119 C27.3,119.3 27.2,119.8 26.9,120 C26.8,120.1 26.5,119.9 26.3,120 C26.1,120.1 25.8,120.2 25.6,120.4 C25.5,120.5 24.6,121.3 24.6,121.4 C24.6,121.9 25.4,121.9 25,122.5 C24.6,122.2 24.3,121.7 23.8,122 C23.2,122.3 23.2,122.5 23,123.2 C22.8,123.9 24.9,124.7 24.4,125.8 C24.1,125.5 23.5,124.6 23,124.6 C22.2,124.6 21.4,124.7 22,125.7 C22.3,126.1 23.4,126.5 22.6,127.1 C21.9,127.6 22.1,128.1 22.2,128.9 C21.6,128.4 21.6,128.4 21.7,127.5 C21.8,126.7 22.1,126.6 21.3,126 C20.6,125.4 18.9,126.5 18.7,127.3 C18.5,127.9 19.2,129.8 19.5,130.3 C19.7,130.6 20.6,131.6 20.5,131.8 C20.4,132.2 19.5,132.4 19.3,132.8 C19.6,131.9 19.6,131.4 18.6,131.2 C19.4,130.1 18.6,128.9 17.9,128.2 C17.5,128.7 17.5,128.6 17,128.8 C16.1,129.1 16.8,129.3 16.3,129.8 C16.2,129.9 15.9,130.1 15.8,130.2 C15.7,130.4 16,130.6 15.7,130.8 C15.1,131.1 15.5,131.5 14.9,131.8 C13.9,132.3 14.1,133.3 15.2,133.3 C15.7,133.3 15.9,133.9 16.4,133.9 C17,133.9 17.3,133.9 17.8,134.3 C16.6,134.6 14.8,134.1 13.7,133.6 C13.3,133.4 13.4,135.1 13.6,135.4 C14.3,136.2 14.8,135.9 15.8,136.1 C15.5,136.4 14.7,136.3 14.7,136.5 C14.6,137 14.7,137.3 15.2,137.5 C14.8,138.4 13.3,135.6 12.9,135.1 C12.6,135.4 11.4,136.3 12.4,136.6 C13.1,136.8 13,138.3 14,138.6 C13,138.9 12.1,136.2 11.3,136.9 C10.8,137.3 11.2,139.6 11.4,140.1 C11.6,140.6 11.8,141.1 12,141.5 C12.4,142.2 12.8,141.9 13.5,141.7 C13.9,141.6 14.4,141 14.7,141.3 C15,141.7 15.6,142.2 15.2,142.8 C14.6,142.2 14.2,142 13.3,142.2 C12.9,142.3 12.5,142.4 12.2,142.7 C12,142.8 11.9,143.5 12.1,143.6 C13.8,144.2 14.3,145.5 15,147.1 C14.2,147.2 13.4,145.2 12.8,144.7 C12,143.9 11,143.4 10.2,142.6 C10.5,142.6 11.4,142.8 11.4,142.5 C11.5,142 11.3,141.7 11,141.2 C10.5,140.1 10.4,139.4 10.5,138.1 C9.6,138 9.6,139.1 9.1,139.8 C8.7,140.4 8.7,140.2 8.9,140.7 C9,141 9.7,141.5 9.7,141.8 C9.7,142.2 9.2,142.4 8.9,142.3 C8.2,142.2 8.2,142 7.8,142.6 C7.4,143.5 7,144.3 6.6,145.2 C7.2,145.4 7.9,145.9 8.4,145.3 C8.5,145.7 9.5,147.4 10.1,146.6 C10.4,146.3 10.5,145.9 11,145.8 C11.4,145.8 11.9,145.6 12,146.2 C11.7,146.2 11.1,146 11,146.2 C10.8,146.4 10.4,147.1 10.1,147.2 C9.3,147.5 8.6,146.6 8,146.4 C5.9,145.7 5.7,148.4 6,149.8 C5,149.6 5.2,151.2 5.2,151.9 C5.5,151.9 6.2,152 6.5,151.8 C7.1,151.4 7.5,151 8.3,151 C8.8,151 9.8,150.3 10.2,150 C10.8,149.6 11.4,149.1 12,148.6 C12,150 10.9,150.1 9.8,150.7 C10.4,150.7 11.1,150.8 11.7,150.8 C11,150.9 10.4,151.1 9.8,151.3 C9.3,151.5 8.8,151.3 8.2,151.6 C7.6,151.9 7.1,152.2 6.6,152.7 C6.2,153 6.6,154.1 6.7,154.6 C7.5,154.5 8.4,154.3 9,153.8 C9.4,153.5 9.2,153.3 9.7,153.1 C10.2,152.9 10.8,152.7 11.3,152.5 C11.1,153.5 10.6,153.6 9.6,154 C8.8,154.3 7.1,154.6 6.8,155.4 C6.1,156.7 8.1,155.9 8.4,156 C9.4,156.1 10.5,156.1 11.4,156.3 C10.3,156.5 9.6,156.8 9.5,158 C9,157.8 8,157.4 7.5,157.8 C6.8,158.3 6.3,158.2 5.5,158.5 C5.1,158.6 4.9,158.7 4.6,159 C4.3,159.4 4.3,159.7 3.8,159.5 C3.1,159.1 2.4,159.2 1.6,159.4 C0.8,159.6 0.6,160.7 0.5,161.4 C0.3,162.6 0.7,162.8 1.1,163.8 C1.3,164.4 1.1,165.5 1.3,165.9 C1.7,166.6 2.6,165.7 3.2,165.3 C2.9,166.2 3.8,165.9 4,165.2 C4.1,164.6 4.7,164 5,163.4 C5.2,162.9 5.3,162.4 5.5,162 C5.8,161.4 5.9,161.4 6.6,161.1 C6,161.9 5.8,163 5.4,163.9 C6.5,164.3 7.1,164 7.9,163.4 C8.3,164.2 5.6,164.7 5,165.1 C4.3,165.6 4.5,166 4.4,166.8 C4.3,167.4 4.1,168 3.9,168.6 C4.2,168.4 4.6,168.2 4.9,167.9 C5.2,167.7 5.5,168.1 5.7,168 C5.9,167.9 6,167.2 6.3,167 C6.6,166.8 6.9,166.5 7.1,166.3 C7.5,165.9 7.6,165.9 7.7,165.3 C7.7,164.9 7.9,164.7 8.2,164.6 C9.5,164.3 9.9,163.4 10.9,162.6 C10.6,163.2 10.4,163.9 10,164.4 C9.8,164.7 9.8,164.9 9.4,164.9 C9.2,164.9 8.4,164.9 8.3,165.2 C8.2,165.7 8,165.7 8.2,166.2 C8.4,166.6 8.6,166.9 8,166.9 C8,166.9 6.9,168.2 6.7,168.5 C6.2,168.9 6.2,169.8 5.6,169.9 C4.7,170.1 5.4,170.8 5.7,171.3 C6.2,172 6.4,171.9 7.2,171.9 C7.9,171.9 8.4,172.2 9.1,172.4 C8.9,171.5 11,171.9 11.5,171.9 C12.3,171.9 13.1,172.1 13.9,172.2 C15,172.4 16,172.6 17.2,172.6 C17.8,172.6 18,172.7 18.5,172.3 C18.9,172 19.6,172 20.1,172 C21.5,172.1 21,171.6 21.1,170.5 C21.2,169.4 22.3,169 23.2,168.7 C23.9,168.5 25.1,169.1 25.7,169.4 C26.2,169.6 26.1,170.1 26.6,169.8 C27,169.5 27.2,169.1 27.5,168.6 C27.7,169.1 26.9,170.4 27.1,170.6 C27.7,171.1 28.2,171.5 28.8,171.9 C29.9,172.8 28.6,173 28.4,173.7 C28.3,174.3 28.9,174.5 29.3,174.8 C29.5,175 30.7,176.1 31,176 C31.2,175.9 31.2,175.3 31.4,175.2 C31.7,175.1 32.1,175.8 32.4,175.8 C33,175.7 33.2,174.9 34.1,175 C34.8,175 35.4,175.5 36,175.8 C35.9,174.7 36.3,173.9 37.6,174.3 C38.9,174.7 39.5,175.6 40.3,176.7 C40.6,177.2 41.4,179.7 42,178.2 C42.1,178 42,177.8 42,177.7 C42.1,177.5 42.4,177.6 42.4,177.3 C42.5,176.7 42.6,176 42.6,175.4 C42.8,176.2 42.9,177.8 43.8,178.3 C43.2,178.8 42.8,179.2 42.1,179.6 C42.9,179.9 44.8,181 45.3,179.7 C45.4,179.3 45.1,178.4 45.6,178.4 C46.3,178.4 46.9,178.5 47.6,178.5 C47.3,179 46.5,180.5 47.8,180.5 C48.6,180.5 49,180.4 49.6,180 C50,179.7 50,178.9 50.2,178.7 C50.4,178.5 51.1,178.6 51.4,178.6 C52.3,178.5 51.9,179.5 51.8,180 C51.6,180.8 53.1,180.8 53.5,181.5 C53.8,182 53.9,182.4 54,183 C54,183.3 55.1,183.2 55.4,183.2 C56.2,183.2 57.4,183.6 58.2,183.4 C58.8,183.2 60.8,183.2 60.6,182.4 C60.5,182 60.4,181.5 61,181.3 C61.4,181.2 61.2,182.6 61.2,182.8 C61.6,183.6 62.6,182.7 63,182.4 C63.9,181.5 63.9,182.2 65,182.1 C65.7,182.1 66.6,181.5 67.2,181.3 C67.5,181.2 67.4,180.9 67.4,180.6 C67.4,180.1 67.7,180.1 68.1,180 C68,180 67.8,180 67.7,179.9 C67.8,180 68.7,179.9 69,179.9 C69.7,180 69.8,180.1 70.4,180.6 C70.3,179.3 71,179.4 71.9,178.8 C72.3,178.5 72.6,178.3 72.8,177.9 C73.1,177.2 72.9,177.3 72.2,176.9 C72.8,176.6 76.3,176.8 74.9,175 C73.5,173.3 75.8,172.8 76.8,171.9 C77.4,171.4 77.6,170.8 78.3,170.4 C79,170 79.4,169.4 80,168.9 C81.2,167.8 83.1,166.9 83.3,165.2 C83.5,163.6 83.7,162.4 84.8,161.1 C85.4,160.3 85.8,159.9 86.6,159.5 C86.9,159.3 87.3,159.3 87.7,159.3 C88.2,159.3 88.6,159 89,158.8 C90.4,158.2 92.2,158.5 93.6,157.9 C93.8,157.8 93.7,157.6 94,157.6 C94.2,157.6 94.5,157.6 94.6,157.6 C94.8,157.5 95.3,157.2 95.3,157 C95.2,156.6 94.9,156.5 94.8,156.1 C94.7,155.7 95,155.2 95.1,154.8 C95.2,154.6 95.2,154.4 95.3,154.3 C94.9,154.6 94.6,154.8 94.2,155.1 C94,155.2 93.7,155.1 93.5,155.2 C93.4,155.2 93.4,155.9 93.2,156.1 C92.5,157.2 91.5,157.4 90.4,157.6 C90.6,156.9 91.3,157 91.7,156.5 C92,156.1 91.7,155.6 92.4,155.7 C91.4,155.3 92.9,154.8 93.4,154.6 C94.3,154.3 94.4,153.7 93.4,153.7 C92.5,153.7 92.6,152.9 91.7,153 C91.2,153.1 92.5,151.6 92.5,151.6 C93.1,150.9 93.2,150.7 93.3,149.8 C93.2,149.8 93.2,149.8 93.1,149.8 C93.1,149.8 93.1,149.8 93.1,149.8 C93.1,149.8 93,149.8 93,149.8 C93,149.8 93,149.8 93,149.8 C93,149.8 93,149.8 93,149.8 C93,149.8 93,149.8 93,149.8 C93,149.8 93,149.8 93,149.8 C93,149.8 93,149.8 93,149.8 C93,149.8 93,149.8 93,149.8 C93,149.8 93,149.8 93,149.8 C93,149.8 93,149.8 93,149.8 C93,149.8 93,149.8 93,149.8 C93,149.8 93,149.8 93.1,149.8 C93.1,149.8 93.1,149.8 93.1,149.8 C93.1,149.8 93.1,149.8 93.2,149.7 C93.2,149.7 93.2,149.7 93.2,149.7 C93.2,149.7 93.3,149.7 93.3,149.6 C93.3,149.6 93.3,149.6 93.3,149.6 C93.3,149.6 93.4,149.6 93.4,149.5 C93.4,149.5 93.4,149.5 93.4,149.5 C93.4,149.5 93.5,149.5 93.5,149.4 C93.5,149.4 93.6,149.4 93.6,149.4 C93.6,149.4 93.6,149.4 93.6,149.4 C93.6,149.4 93.7,149.4 93.7,149.3 C93.7,149.3 93.7,149.3 93.7,149.3 C93.7,149.3 93.8,149.3 93.8,149.3 C93.8,149.3 93.8,149.3 93.8,149.3 C93.8,149.3 93.9,149.3 93.9,149.3 C93.9,149.3 93.9,149.3 93.9,149.3 C93.9,149.3 94,149.3 94,149.3 C94,149.3 93.9,149.3 93.9,149.3 C93.9,149.3 93.9,149.3 93.9,149.3 C94.5,148.9 94.5,148.5 94.7,147.8 C94.9,147.1 95,147 95.5,146.5 C95.9,146 96.2,145.5 96.6,145 C96.7,144.9 96.2,144.3 96.3,144 C96.6,143 97.6,142.4 97.6,141.5 C97.6,141.2 96.9,140.8 96.8,140.5 C96.7,140.1 96.8,139.6 96.9,139.3 C97.1,138.2 97.6,137.4 97.9,136.3 C98.1,135.8 98.3,135.4 98.6,135 C98.9,134.7 99.6,134.4 99.6,134 C99.8,132.3 102.2,130.5 103.1,129.1 C103.8,126.3 103.8,123.7 103.3,120.9 C103.1,119.7 103.4,118.3 103.6,117.1 C103.8,115.8 105.1,114.8 105.1,113.7 C105.1,113.1 104.7,112.3 104.9,111.8 C105.1,111 105.5,110.8 106,110.2 C106.4,109.7 106.7,108.9 107.3,108.5 C107.9,108 108.1,107.3 108.9,107 C110.4,106.5 109.6,104.2 108.8,103.3 C108.4,102.8 106.4,100.4 106.7,99.9 C107.3,100.8 108.6,101.5 109.4,102.1 C110.4,102.9 110.6,103.9 110.9,105 C112,104.1 113.4,103.5 114.6,102.9 C115.9,102.2 117.1,101.1 118.4,100.6 C119.7,100 120.9,98.8 122.2,98.4 C123.1,98.1 123.6,97.8 124.3,97.2 C124.8,96.8 125.5,96.5 126,96.1 C125.5,95.6 125,95.2 124.5,94.7 C123.9,93.9 123.6,93 123.1,92.1 C122.2,90.7 119.5,90.8 119.3,89.1 C120.4,89.7 121.6,90.4 122.7,91 C123.6,91.5 125.1,92.3 125.9,93.1 C126.4,93.7 126.8,94.5 127.3,95 C128,95.8 128.1,95.5 129,95.1 C129.5,94.9 130.2,95.3 130.6,94.6 C130.8,94.2 130.7,93 130.1,93 C130.2,92 131.1,91.2 131.6,90.4 C132.2,91.1 132.4,90.1 133,90.2 C133.6,90.3 134.1,91.6 134.7,91.8 C135.2,92 135.7,91.7 136.2,91.7 C136.9,91.8 137.2,92.2 137.5,92.8 C135.7,93.3 133.2,93.2 131.8,94.5 C133.3,94.5 134.8,94.1 136.3,94 C137,93.9 137.6,93.8 138.3,93.5 C138.9,93.3 139.3,92.8 140,92.5 C139.4,93.1 138.9,93.3 139.2,94.1 C139.4,94.5 140.4,94.4 140.7,95 C141.2,95.8 143.5,96.3 144.2,95.7 C143.2,95.3 143.2,94.4 143.1,93.5 C143,92.6 143.5,92 143.7,91.1 C144,91.3 144.1,91.7 144.2,92 C144.3,92.3 143.9,92.3 143.9,92.5 C143.9,92.8 144.1,92.8 144,93.1 C143.9,93.3 143.9,93.5 143.9,93.7 C143.9,94.4 144.8,96.4 145.7,95.3 C146.1,94.9 146.4,94.5 146.8,94.1 C146.9,94 147.3,94 147.4,93.9 C147.5,93.7 147.5,93.3 147.5,93.1 C147.7,92.5 149.1,90.6 147.6,90.6 C148,90 147.8,89.3 147.2,89.1 C146.6,88.9 147.2,88.1 146.3,88 C145.6,87.9 145.4,88.6 144.9,87.7 C144.7,87.3 143.7,86.9 143.5,87.5 C143.5,87.7 143,89.3 142.7,88.7 C142.5,88.4 143,87.4 142.9,86.9 C142.8,86.6 141.8,86 141.7,86.4 C141.6,87 141.5,88 140.8,88.1 C141.2,87.6 141.4,87 141.2,86.4 C140.8,86.6 140.2,87 139.7,87.1 C139,87.2 138.6,87 138.3,87.7 C138.2,87.5 138,87.3 137.9,87 C137.9,87.2 137.8,87.5 137.8,87.7 C137.3,87.6 137.5,87.2 137.6,86.8 C137.6,86.3 138.2,86.4 138.6,86.3 C139,86.2 140.5,86 140.7,85.7 C140.9,85.4 140.4,85.2 140.1,85.1 C139.5,84.9 139.6,84.8 139.4,84.2 C139.1,83.5 139,82.7 138.9,82 C138.5,80.2 138.4,78.6 138.7,76.8 C138.8,76.1 138.8,75.3 139.1,74.6 C139.6,73.5 139.5,73.5 138.4,73 C138.9,73 139.7,73.2 139.9,72.8 C140.2,72.2 140.6,71.5 140.1,70.9 C140.6,71.3 141.2,71.7 141.8,71.2 C142.1,71 142,70.3 142.3,70.1 C142.5,69.9 143,70 143.3,69.9 C144,69.7 144.8,69.5 145.4,69.1 C145.6,68.9 146.1,68.5 146.3,68.5 C146.5,68.5 147.4,68.7 147.4,68.5 C148.1,66.9 148.9,66.3 150.6,65.9 C151.5,65.7 151.4,64.7 151.9,64 C152.5,63.3 152.6,63 152.9,62.1 C153.2,61.3 153.5,61 154.2,60.5 C154.5,60.3 154.8,58.3 155,57.9 C155.6,56.4 156.3,54.9 157,53.4 C157.2,52.9 157.7,53.5 157.4,52.8 C157.2,52.3 157.4,52.2 157.5,51.8 C157.8,51.2 157.8,50.3 158.3,49.8 C158.7,49.3 159.5,48.5 160.1,48.3 C160.7,48.1 161.5,48.6 162.2,48.8 C162.4,48.3 162.2,48.1 161.9,47.8 C161.6,47.5 161.7,47.2 161.8,46.8 C161.8,46.3 161.9,46.3 162.2,45.9 C162.5,45.6 163,45.7 163.2,45.5 C163.3,45.4 163.3,44.5 163.3,44.4 C163.4,44 163.6,44 164,43.8 C164.5,43.6 164.1,43.4 164.4,43.1 C164.7,42.8 165.1,42.6 165.5,42.4 C166.2,42.1 166.2,41.1 166.8,40.9 C167.9,40.6 167.3,40 167.3,39.1 C167.3,37.9 168.2,35.9 169.2,35.1 C170.6,34 172.1,32.7 173,31.1 C173.4,30.4 173.7,30 173.9,29.2 C174,28.9 174.3,28.6 174.6,28.5 C175.6,28.2 176.6,27.7 175.9,27.5 Z" id="Shape"></path>
                    </g>
                </g>
                <g id="Te_Tau_Ihu" transform="translate(124.000000, 173.000000)" fill="#CCCCCC" fill-rule="nonzero">
                    <path d="M55.5,20.8 C55.2,21.2 55,21.6 54.6,21.8 C54.5,21.9 53.3,22.1 53.2,22.2 C52.8,22.9 54.4,23 54.7,22.5 C54.7,23.6 53.8,23.4 53.1,23.8 C52.6,24 52.4,24.5 51.9,24.8 C51.3,25.1 52.1,25.7 51.4,25.9 C50.9,26.1 50.7,26.2 50.1,26.2 C49.4,26.2 49.8,25.9 49.1,25.7 C48.5,25.5 47.6,26.9 47.4,25.9 C47.2,26.1 46.7,26.8 46.4,26.9 C46.1,26.9 45.2,26.5 44.9,26.4 C44.6,26.3 44.1,27.2 43.7,26.9 C43.2,26.5 44.4,26.2 44.6,26.1 C45.1,26 45.4,25.7 45.8,25.4 C46,25.3 46.7,25.8 46.8,25.3 C46.9,24.8 47.3,25.2 47.7,25 C48.2,24.8 48.3,24.1 48.8,24.8 C48.8,24.6 48.9,24.5 49,24.4 C49.6,24.9 49.6,24.2 49.9,23.8 C50.1,24 50.3,24.1 50.6,24.2 C50.7,23.8 50.9,22.8 50.4,22.5 C49.5,22.1 49.9,21.7 50.2,21 C50.3,21.3 50.7,23 51.2,22.3 C51.4,22.1 51.2,22.1 51,21.9 C50.7,21.5 51.2,21.7 51.2,21.7 C51.3,21.7 51.6,21.7 51.7,21.8 C51.9,21.8 51.8,21.5 51.9,21.4 C52,21.3 51.8,21.1 51.9,21 C52,20.8 52.2,20.6 52.4,20.4 C52.7,20.1 52.6,19.6 52.8,19.3 C53,19.1 53.7,18.9 53.7,18.7 C53.8,18.1 53.9,17.6 53.9,17 C53.2,17.6 53.7,18.3 52.9,18.8 C52.6,18.9 52.2,19 52,19.2 C51.8,19.4 51.7,20 51.4,20 C51.2,19.9 50.2,19.8 50.3,19.3 C50.4,18.9 51.1,19.1 51.1,18.8 C51,18 52.2,18 51.7,17 C51.5,17.4 51.1,18.3 50.4,18 C49.8,17.7 50.6,16.7 49.7,16.8 C50.1,17.2 49.7,18 49.6,18.6 C49.3,18.2 49.1,17.8 48.7,17.6 C48.7,18.2 48.6,18.7 48.6,19.3 C48.3,18.7 47.9,18.2 48.1,17.6 C48.3,17 48.3,16.5 48.4,15.9 C47.2,16.1 47.6,16.8 47.5,17.8 C46.3,17.7 46.8,17.5 46.6,16.5 C46.6,17 46.3,17.1 45.9,17.2 C45.5,17.3 45.6,17.6 45.4,17.9 C45.3,18.1 44.7,18.5 45,18.7 C45.2,18.9 45.6,19.2 45.9,19.1 C46.3,19 46.9,18 47.4,18.5 C48.3,19.4 46.6,19.5 46.4,19.8 C46.4,19.8 47.3,21.2 47.4,21.4 C47,21.1 46.6,20.7 46.3,21.2 C46.2,21.4 46.1,22.1 45.8,21.9 C45.6,21.8 45.4,21.9 45.3,22 C45.4,21.3 45.4,20.7 45.9,20.2 C45.5,20.3 44.6,20.3 44.6,20.9 C44.6,21.1 44.7,21.2 44.5,21.3 C44.2,21.5 44.4,21.7 44.3,21.8 C43.9,22.1 43.2,21.8 43.1,22.4 C43.1,22.6 43.5,23.1 43.5,23.5 C43.5,23.9 45.2,23.6 45.5,23.5 C46,23.5 46,23.8 46.3,23.2 C46.5,22.9 47,22.8 47.4,22.9 C47.3,23 47.3,23.2 47.2,23.4 C47.8,23.4 48.4,23.4 49.1,23.3 C48.3,24.1 47.2,24.2 46.1,24.4 C45.7,24.5 42.4,24.6 43.8,25.3 C43.3,25.6 42.2,25.6 41.9,26 C42.2,26.1 42.5,26.4 42.7,26.7 C41.7,26.7 40.7,26.4 39.6,26.3 C40.2,26.2 40.7,25.9 41.2,25.6 C41.4,25.5 41.9,25.5 42.1,25.4 C42.3,25.3 42.4,24.8 42.5,24.6 C42.6,24.2 43,23.2 42.5,22.9 C42.1,22.6 41,22.9 40.9,23.3 C40.9,23.1 40.8,22.2 41,22.2 C41.3,22.1 41.9,22.4 42,22.1 C42.2,21.6 42.7,22.3 42.7,21.6 C42.7,21.5 43.4,21.4 43.6,21.1 C42.9,20.7 43.5,20.4 44,20.4 C44.4,20.4 44.4,19.8 45.1,19.8 C44.4,19.6 42.8,19 42.2,19.6 C41.5,20.3 41.5,21.3 40.3,21.1 C41,20.5 41,20.1 41,19.2 C41,19 41.1,18.9 41.3,18.7 C41.6,18.5 41.1,18.5 41.2,18.3 C41.4,17.9 41.5,17.7 42,17.7 C42.1,19.3 43.8,17.6 44.5,17.2 C44.3,17.1 44.1,16.9 43.9,16.8 C44.4,16.5 45.8,16.7 45.1,15.8 C45.6,15.9 45.8,15.7 45.6,15.3 C46.2,15.2 46.7,16.5 46.7,15.2 C46.7,14.9 46.2,14.2 45.8,14.5 C45.3,14.8 44.2,15.2 44.1,15.8 C44,16.7 43.5,16.7 42.6,16.8 C42.7,16.3 42.7,15.8 42.7,15.3 C42.2,15.6 42.1,16.5 41.7,16.7 C41.1,17 40.4,17.1 39.8,17.5 C39.1,18 38.7,17.8 38.6,18.8 C38.5,19.7 39.4,19.1 39.7,18.8 C40.5,19.4 39.1,19.7 38.7,19.9 C38.5,20 37.5,21.2 37.4,20.6 C37.4,20.2 37.5,19.2 36.9,19 C36.5,18.9 34.9,20.4 34.9,20.6 C34.9,20.6 34.9,20.5 34.9,20.5 C34.4,20.9 34.4,21.5 34,21.9 C33.6,22.3 32.2,23.1 32.6,21.9 C31.9,22.4 31,22.9 30.4,23.4 C29.9,23.9 30,24.4 29.6,24.8 C28.7,25.8 27.3,25.9 27.2,27.3 C26,27.1 25.1,26.2 24.1,25.5 C24.4,25.4 24.7,25.2 25,25.1 C24.4,24.2 23.8,23.3 23.3,22.4 C22.8,21.5 22.7,20.4 22.6,19.4 C22.4,18.3 22.3,17.5 23,16.6 C23.4,16 23.3,15.5 23.4,14.8 C23.4,14.1 23.7,13.4 23.8,12.7 C23.3,12.8 22.9,12.9 22.3,13 C22.7,12.3 22.7,11.9 22.7,11.2 C22.7,10.6 21.9,10.2 21.4,10.6 C20.3,11.3 19.5,11.7 18.1,11.2 C17,10.8 16.3,9.7 15.5,8.8 C15.4,8.7 14.8,8.3 14.7,8.2 C14.7,8 15.1,7.8 15,7.5 C14.8,6.9 14.6,6.3 14.5,5.6 C15.3,5.8 15.1,4 15.4,3.5 C15.8,2.5 16.3,1.8 17.4,1.8 C18.5,1.8 19.4,1.9 20.5,2.2 C21.1,2.4 22.5,3.5 22.9,3.1 C23.8,2.3 21.6,1.7 21.1,1.5 C20.2,1.1 19.5,0.8 18.4,1 C16.9,1.2 13.1,0.6 12.7,2.6 C12.9,2.6 13.5,2.5 13.6,2.6 C13.6,2.6 13.6,3.5 13.6,3.6 C13,4.3 12.2,3.1 12.2,4.3 C12.2,4.9 12.1,5.6 11.4,5.7 C10.6,5.9 10.9,4.8 10.9,4.3 C9.7,5.3 8.3,5.9 7.1,6.9 C6.5,7.4 5.7,7.6 5.2,8.1 C5,8.3 4.8,8.8 4.6,9.1 C4.4,9.3 3.7,9.3 3.3,9.3 C2.9,9.3 2.4,10.6 2.2,10.9 C1.7,11.5 1,12.1 0.8,12.8 C0.7,13 0.7,13.1 0.7,13.3 L3.5,16.3 L5.7,20.5 L7.2,25.3 L9.9,31 L10.9,33.8 L12.6,37 L14.7,39.8 L17.7,40 L20.7,39.8 L24.8,36.3 L29.6,34.8 L33.4,34.3 L39.9,33.3 L43.2,33.3 L47.1,33.6 C47,33.3 46.9,33.1 46.9,32.8 C46.9,32.8 46.9,32.8 46.9,32.8 C46.9,32.7 46.9,32.6 46.9,32.5 C46.9,32.5 46.9,32.4 46.9,32.4 C46.9,32.3 46.9,32.2 46.9,32.1 C46.9,32.1 46.9,32 46.9,32 C46.9,31.9 46.9,31.8 46.9,31.7 C46.9,31.6 46.9,31.6 46.9,31.5 C46.9,31.4 46.9,31.3 47,31.2 C47,31.1 47,31.1 47,31 C47.1,30.8 47.1,30.5 47.2,30.3 C47.3,30.4 47.5,30.4 47.6,30.5 C47.4,29.6 49.6,26.3 50.3,27.8 C50,28.1 48.8,28.7 49.1,29.1 C49.4,29.5 50.2,28.9 50.5,28.6 C50.7,28.4 51,28.4 51.3,28.3 C51.7,28.2 51.6,27.7 51.7,27.5 C52.1,26.9 52.9,26.7 52.9,25.9 C52.9,25.6 53.6,24.8 53.9,24.7 C54.3,24.5 55.2,24.7 55.3,24.2 C55.1,23 55.6,22.1 55.5,20.8 Z" id="Shape"></path>
                </g>
                <g id="Te_Moana_O_Raukawa" transform="translate(183.000000, 161.000000)" fill="#CCCCCC" fill-rule="nonzero">
                    <path d="M4.5,30.5 C4.4,30.6 4,30.7 3.9,30.9 C3.7,31.3 3.5,31.8 3.2,32.2 C2.8,33 1.6,33.1 1.2,33.9 C0.7,34.8 1,36.1 1.8,36.8 C2.2,37.2 2.5,37.2 3,37.2 C3.3,37.2 3.4,37.3 3.4,37 C3.5,36.7 3.4,36.5 3.4,36.2 C3.4,35.1 3.8,34.5 4.7,34 C4.9,33.9 5,33.7 5.1,33.5 C5.2,33.4 5.5,33.7 5.6,33.7 C6,33.9 6.2,34.2 6.2,34.6 C6.2,34.7 6.2,34.7 6.2,34.8 L7.1,33.8 L13.6,27.1 L16.3,21.8 L15.5,13.9 L22.7,8 L25.9,3.6 L28,0.2 C26.9,0.2 25,0.4 22.6,0.7 C22.6,0.7 19.6,1 17.1,1.2 C14.6,1.4 12.5,2.4 11.8,2.9 C11.8,2.9 11.7,2.9 11.7,3 C11.8,3.2 11.8,3.4 11.9,3.6 C12.2,4.5 12.1,5.4 12.4,6.3 C12.7,7.4 12.7,8.3 12.6,9.5 C12.6,9.9 12.4,10.5 12.5,10.9 C12.6,11.2 12.5,11.4 12.8,11.5 C13.1,11.6 13.6,11.6 13.4,12 C12.6,11.5 12.5,12.4 12.4,13 C12.3,13.8 12.5,14.9 12.2,15.5 C11.5,16.8 11.2,18.3 10.6,19.7 C10.3,20.3 10.2,20.9 10,21.5 C9.7,22.1 9,22.5 8.5,23 C7.6,23.9 7.4,25.3 7.2,26.5 C7.3,26.6 7.1,27.5 7,27.6 C6.9,27.9 6.7,28.1 6.4,28 C6,27.9 5.7,28.1 5.4,28.4 C4.9,28.9 5,29.1 5.4,29.7 C5.6,29.9 5.5,30.2 5.5,30.5 C5.5,30.6 5.1,30.7 5,30.7 C5,30.4 5,30.1 5,29.8 C4.9,29.8 4.8,30.2 4.5,30.5 Z" id="Shape"></path>
                </g>
                <g id="Hau훮uru" transform="translate(161.000000, 120.000000)" fill="#CCCCCC" fill-rule="nonzero">
                    <path d="M52,27.1 C52.5,26.5 53,25.9 53.5,25.3 L46.9,24.8 C46.8,24.8 41.4,23 38.2,21.8 C34.9,20.6 32,14.6 31.9,14.4 L31.9,14.3 L30,4.7 L29.8,4.6 C29.8,4.6 29.8,4.6 29.8,4.6 L25.6,2.9 L19.4,0.6 C19.3,1.6 19.2,2.5 19.2,3.5 C18.7,4.3 18.3,5 17.8,5.8 C17.4,6.5 16.6,7 16.1,7.6 C15.5,8.2 15.1,9 14.6,9.7 C14.2,10.2 12.8,10.1 12.3,10.1 C12.1,9.9 10.1,9.7 10.2,10.2 C9.7,10.4 9,10.5 8.7,10.9 C8.4,11.1 8.2,11.4 7.9,11.6 C7.7,11.7 7,12.2 7,12.4 C6.8,12.4 6.2,12.4 6.1,12.5 C5.9,12.8 5.7,13.1 5.5,13.3 C5.2,13.5 5,13.8 4.7,14 C4.5,14.2 4.1,13.9 3.9,14 C3,15.1 2,16 1,17 C0.6,17.4 0.7,18.5 0.7,19 C0.7,19.7 0.7,20.5 0.8,21.2 C1,22.4 2,23.5 2.8,24.3 C3.2,24.7 3.5,25.2 4,25.4 C4.5,25.6 4.9,25.8 5.4,26 C6.3,26.4 7.2,26.7 8.2,26.9 C8.9,27 9.5,26.9 10.2,27.1 C10.6,27.2 11.1,27.3 11.5,27.4 C12.4,27.6 13.1,28.5 13.7,29.1 C14,29.4 14.5,29.7 14.7,30.1 C14.9,30.4 15.2,30.9 15.6,31.2 C16.5,31.8 17.4,32.4 18.3,32.9 C18.7,33.1 18.9,33.7 19.3,33.9 C19.7,34.1 20.4,34 20.8,34.1 C21.2,34.2 23.4,34.8 22.9,35.2 C23.3,35.1 23.7,35 24.1,35 C25.2,34.9 26.2,35 27.2,35.4 C28,35.8 28.8,36.7 29.4,37.3 C30.2,38 30.9,38.5 31.5,39.3 C32.1,40 32.5,40.8 32.9,41.6 C33.1,42 33.3,42.4 33.4,42.9 C34.3,42.3 36.6,41.4 39,41.1 C41.5,40.8 44.5,40.6 44.5,40.6 C47.4,40.2 49.6,40.1 50.6,40.1 L51.1,30.8 L52,27.1 Z" id="Shape"></path>
                </g>
                <g id="T훮kitimu" transform="translate(188.000000, 120.000000)" fill="#CCCCCC" fill-rule="nonzero">
                    <path d="M45,5.5 L36.8,8.2 C36.4,9 34.6,12.1 34.2,13 C33.7,14 32,18.2 31.7,19.4 C31.4,20.7 27,26.2 25.9,27.5 L25.2,30.9 L24.7,40.4 L21.9,45 L18.5,49.6 L11.7,55.2 L12.4,62.8 L9.5,68.6 L3,75.4 L0.9,77.6 C0.9,78 1.2,78.5 1.4,78.7 C1.6,78.9 1.7,79 1.8,79.3 C1.8,79.5 2.3,79.5 2.4,79.5 C2.6,79.6 3.4,78.9 3.6,78.8 C3.9,78.7 4,78.3 4.2,78.1 C4.4,77.9 4.8,78 5,78 C5.5,78 5.8,78 6.3,78.3 C7,78.6 8.1,79.3 8.2,80.1 C8.3,81.3 8.2,82.4 8.7,83.5 C8.9,84.1 10.8,84.4 11.3,84 C11.7,83.5 12,83.3 12.6,83.1 C13,83 13.5,83.4 13.8,83.1 C14.4,82.5 14.7,81.7 15.5,81.2 C16,80.9 16.3,80.7 16.8,80.5 C17.3,80.3 17.3,80.1 17.6,79.7 C17.8,79.4 18.2,78.9 18.5,78.8 C18.9,78.6 19.3,78.6 19.7,78.3 C20.1,78 20.5,77.6 20.9,77.4 C21.4,77.1 21.8,77 22,76.5 C22.1,76.2 22.1,75.6 22.2,75.4 C22.3,75.3 22.7,75.3 22.8,75.1 C22.9,75 23,74.6 23.1,74.6 C23.3,74.5 23.5,74.5 23.7,74.3 C24.1,73.8 24.3,73.5 24.4,72.9 C24.6,72.3 25.1,72.2 25.4,71.8 C25.7,71.5 25.8,70.8 26.2,70.7 C26.8,70.6 26.8,70 26.9,69.4 C27,68.8 27.4,68.3 27.7,67.7 C27.9,67.2 28.2,66.7 28.4,66.2 C28.5,66 28.4,65.7 28.5,65.5 C28.6,65.4 28.9,65.3 28.9,65.2 C28.9,64.7 29,64.4 29.3,64 C29.9,63.2 30.5,62.7 30.5,61.6 C30.5,60.9 30.6,60.8 31,60.2 C31.3,59.8 31.5,59.4 31.7,59 C31.9,58.6 32.2,58.3 32.4,57.8 C32.6,57.1 32.6,57.1 33.3,56.7 C34.1,56.3 34,54.9 34.9,54.6 C35.4,54.4 35.4,53.9 35.5,53.4 C35.6,52.9 36,52.7 36.4,52.3 C36.7,52 37.1,51.6 37.5,51.5 C37.9,51.4 38.5,51.6 38.7,51.3 C39,50.9 38.9,50.4 38.8,49.9 C38.7,49.4 38.9,49.2 39,48.7 C39.1,48.2 39.3,47.6 39.5,47.1 C39.6,46.7 39.6,46.2 39.8,45.9 C40,45.4 40.1,44.5 40.4,44.1 C40.7,43.8 41.3,43.6 41.7,43.4 C42.1,43.3 42.5,43 42.8,42.7 C43.1,42.3 43.2,41.9 43.5,41.4 C43.6,41.2 43.9,41 44,40.8 C44.1,40.6 44,40.3 44,40.1 C44,39.7 44.4,39.3 44.4,38.9 C44.4,38.4 44.4,38 44.6,37.6 C44.8,37.2 45,36.7 45.1,36.2 C45.2,35.9 45.2,34.9 45.6,34.9 C46.1,34.8 46.1,34.3 46.3,33.8 C46.5,33.4 46.9,33.2 47,32.7 C47.1,32.4 46.9,32.1 47,31.8 C47,31.5 47.1,31.3 47.2,31 C47.3,30.1 47.5,28.9 48.2,28.2 C48.5,27.9 48.9,27.3 48.4,27 C48.1,26.8 47.4,27 47,27 C46.4,26.9 46.2,26.9 45.8,26.4 C45.5,26.1 45.5,25.7 45.3,25.3 C44.9,24.5 44.9,23.5 44.8,22.6 C44.7,22.6 44.5,22.7 44.4,22.7 C44.3,21.8 44.2,20.9 44.5,20.1 C44.7,19.4 45.3,18.5 45.9,18 C46.2,17.7 46.6,17.4 46.8,17 C46.9,16.6 46.9,16.1 47.1,15.7 C47.3,15.3 47.4,14.7 47.7,14.5 C48.2,14.1 48.5,14.1 49.1,14 C49.9,13.9 50.7,13 51.4,12.5 C52.2,12 53.1,11.8 53.7,11.1 C54.3,10.3 55.6,10.4 56.5,10.3 C57.4,10.2 58.3,10.2 59.2,10.2 C60.3,10.1 61.4,10.1 62.5,10.2 C63.1,10.3 63.7,10.5 64.3,10.5 C64.6,10.5 65.3,10.5 65.3,10.7 C65.2,11.3 65.2,11.8 65.1,12.4 C65,12.8 64.7,13.3 64.7,13.7 C64.7,14.5 65.2,15.7 65.5,16.4 C66.3,15.8 66.8,14.9 66.9,13.9 C66.9,13.5 67.5,13.1 67.7,12.9 C68.2,12.5 68.4,12.4 68.5,11.9 C67.9,11.9 67.4,11.8 66.8,11.5 C66.2,11.3 66.2,10.9 66.2,10.4 C66.1,9.4 66.2,8.3 66.3,7.2 C66.3,6.8 66.4,6.3 66.4,5.9 C64.9,4.8 63.4,3.8 62.8,3.7 C61.2,3.4 58.5,2.7 57.4,2.2 C56.8,1.9 55.3,1.7 54.1,1.5 C53.6,1.4 53.1,1.3 52.8,1.3 C51.9,1.1 50.3,0.6 49.4,0.3 L49.3,0.4 L45,5.5 Z" id="Shape"></path>
                </g>
                <g id="Te_Tai_R훮whiti" transform="translate(238.000000, 87.000000)" fill="#CCCCCC" fill-rule="nonzero">
                    <path d="M31.1,4.8 C31,4.6 30.1,4.1 29.8,3.9 C28.7,3.2 27.5,3 26.2,2.8 C26.3,2.8 25.6,1.7 25.6,1.7 C25.5,1.2 26.2,1 26.5,0.8 C26,0.7 25.5,0.6 24.9,0.5 C24.5,0.5 23.9,0.2 23.5,0.2 C23.3,0.2 23.1,0.5 22.9,0.5 C22.7,0.5 22.5,0.5 22.3,0.5 C21.8,0.5 21.3,0.4 20.8,0.5 C20.3,0.5 19.7,0.6 19.2,0.6 C18.9,0.6 18.7,0.6 18.4,1.2 C18.4,2.3 17.4,2.9 16.4,2.4 C16.3,2.7 16.3,3.2 16.1,3.4 C15.9,3.6 15.4,3.8 15.1,3.9 C14.6,4.1 13.9,4.3 13.3,4.4 C13.1,4.4 12.7,4.4 12.5,4.6 C12.5,5 12.6,5.3 12.6,5.5 C12.6,6.5 12.1,9.7 12.1,9.8 L12,10 C12,10 9.7,14.3 9.3,15.2 C8.8,16.1 7.1,19.9 6.6,21.2 C6.1,22.5 1.8,30.2 1.6,30.5 L0.2,32.6 C1.1,32.9 2.5,33.4 3.3,33.5 C3.7,33.6 4.1,33.6 4.6,33.7 C5.9,33.9 7.4,34.1 8.2,34.5 C9.2,35 11.9,35.7 13.3,36 C14.1,36.1 15.6,37.1 17,38.2 C17,38.1 17.1,38 17.1,37.9 C17.2,37.7 17,37.4 17.1,37.2 C17.2,36.9 17.3,36.7 17.4,36.4 C17.5,36 18.1,35.7 18.3,35.4 C17.9,35.4 17.4,35.6 17.3,35.1 C17.2,34.8 17.5,34.2 17.6,33.9 C17.8,33.4 17.9,33.1 18.6,33.1 C18.9,33.1 19.5,33.3 19.7,33.5 C20.1,34 20.3,33.9 20.6,33.3 C21,32.6 21.3,32.6 21.8,32.2 C22.4,31.7 22.7,30.6 23.4,30.2 C24.1,29.8 25,29.2 25.1,28.4 C25.1,27.9 25,27 25.3,26.6 C25.6,26.3 25.9,26 26.3,25.7 C26.4,25.6 26.3,25.2 25.9,24.9 C25.3,24.9 25.4,24.3 25.9,24.2 C26.2,24.1 26.1,23.5 26.2,23.1 C26.2,22.5 26.4,22.4 26.8,22 C26.3,21.8 26.2,21.7 25.9,21.2 C25.7,20.9 26.2,20.6 26.2,20.2 C26.2,19.9 26.4,19.5 26.5,19.2 C26.7,18.6 26.1,18.9 26.1,18.5 C26.1,18.2 26.1,17.9 26.1,17.6 C26.1,17.3 26.2,17.4 26.5,17.3 C26.6,17.3 27.4,16.6 27.3,16.5 C27,15.8 26,14.3 27,13.8 C27.4,13.6 27.9,13.2 27.9,12.7 C27.9,12.5 27.8,12.2 27.9,12 C28.1,11.8 28.2,11.7 28.1,11.4 C28.1,11.1 27.9,10.2 28.1,10 C28.5,9.7 28.8,9.4 29.1,8.9 C29.7,8.1 30.1,7.3 30.6,6.4 C30.5,6.2 31.2,5.1 31.1,4.8 Z" id="Shape"></path>
                </g>
                <g id="M훮taatua" transform="translate(215.000000, 94.000000)" fill="#CCCCCC" fill-rule="nonzero">
                    <path d="M21.5,26 L23.5,23.1 C25,20.4 28.1,14.9 28.5,13.9 C29,12.6 30.8,8.8 31.3,7.9 C31.8,7 33.7,3.3 34,2.7 C34,2.4 34.2,1.3 34.3,0.3 C34.2,0.6 34.1,0.8 33.9,1.1 C33.8,1.2 33.7,1.4 33.6,1.5 C33.4,1.7 33.3,1.5 33.2,1.5 C32.8,1.7 32.5,2.6 32.3,3 C31.4,4.7 30.1,6.2 28.2,6.7 C27.1,7 26,7.4 24.9,7.2 C24.5,7.2 24.1,7 23.7,7 C23.2,6.9 23.5,7.2 23.4,7.6 C23.3,7.9 22.7,7.7 22.7,8.3 C22.6,8.8 21.6,9.3 21.6,8.5 C21.5,7.7 21.6,7.7 20.9,7.3 C20.5,7.1 20.2,6.4 20,6 C19.9,5.8 18.9,5.6 18.6,5.6 C18.2,5.5 17.8,5.3 17.4,5.1 C17,4.9 16.5,4.5 16.1,4.4 C15.1,4.2 14.1,4.2 13.1,3.9 C12.2,3.7 11.4,3.2 10.5,2.9 C9.5,2.5 8.5,2.2 7.8,1.4 C7.5,1.1 7.4,0.8 7.1,0.6 L6.6,6.7 L5.3,12.2 L0.4,16.1 L0.8,19.5 L5,25.7 L7.7,30.7 L9.8,33.3 L17.3,30.8 L21.5,26 Z" id="Shape"></path>
                </g>
                <g id="Te_Arawa_Waka" transform="translate(191.000000, 89.000000)" fill="#CCCCCC" fill-rule="nonzero">
                    <path d="M30.2,43.6 C30.7,42.7 32.6,39.2 32.9,38.6 L30.9,36.1 L28.2,31 L23.9,24.7 L23.3,20.6 L28.4,16.5 L29.6,11.4 L30.1,5.4 C29.9,5.4 29.7,5.3 29.4,5.2 C28.3,4.9 27.1,4.5 26.2,3.8 C25.9,3.5 25.4,3.4 25.1,3.1 L21.4,4.6 L15.9,2.5 L14.9,0.6 L11.9,4.6 C11.9,5.1 11.8,6.8 11.4,8.3 C11.1,9.3 11.1,10.7 11.1,11.9 C11.1,12.8 11.1,13.6 10.9,14 C10.8,14.6 11.3,19.4 11.9,23.8 L11.9,24.1 L9.1,26 C7.7,27.1 5.3,29.1 5,29.6 C4.6,30.2 1.8,34 0.8,35.4 L2.7,44.8 C3,45.4 5.6,50.6 8.4,51.7 C11.3,52.8 16.4,54.5 17,54.7 L23.9,55.2 L23.9,55.4 C25.7,53.1 27.4,50.7 27.6,50.1 C28,48.9 29.8,44.5 30.2,43.6 Z" id="Shape"></path>
                </g>
                <g id="Tauranga_Moana" transform="translate(205.000000, 80.000000)" fill="#CCCCCC" fill-rule="nonzero">
                    <path d="M8.2,11.3 C7.5,11.1 7,10.3 6.7,9.6 C7,9.6 7.2,9.5 7.4,9.4 C7.5,9.4 7.8,10 8,10 C8.5,10.1 8.8,10.7 9.3,10.9 C9.7,11 10.2,11 10.5,11.4 L9.9,11.6 C9.9,11.6 9.8,11.5 9.8,11.5 C9.5,11.1 8.7,11.5 8.2,11.3 Z M4.2,3.2 C4.4,3.8 4.3,4.3 4.5,4.8 C5.1,5.8 6.3,6.6 6.8,7.7 C6.9,8 7.2,8.3 6.9,8.5 C6.6,8.6 6.3,8.3 6.1,8.1 C5.5,7.6 5,7.1 4.5,6.6 C4.5,6.8 4.5,7.1 4.6,7.3 C4.8,7.6 5.1,7.8 4.8,8 C4.4,8.3 4.4,9 4.6,9.5 C4.9,10.3 5,10.4 5.7,10.8 C6.3,11.2 6.9,11.7 7.5,12.1 C7.7,12.2 7.9,12.3 8.1,12.3 L7.4,12.6 L2.6,10.7 L1.6,9 L0.4,5.1 L0.8,3.2 L3.4,0.9 C3.5,1.1 3.6,1.2 3.6,1.3 C3.8,2 4,2.6 4.2,3.2 Z" id="Combined-Shape"></path>
                </g>
                <g id="Tainui" transform="translate(180.000000, 77.000000)" fill="#CCCCCC" fill-rule="nonzero">
                    <path d="M21.1,24 C21.1,22.7 21.2,21.2 21.5,20.2 C22,18.5 22,16.6 22,16.6 L22,16.4 L24.4,13.1 C23.1,13.2 21,13.1 19.2,12.3 C19.1,12.2 16.3,10.2 14.1,8.5 L14,8.3 L12.7,5.7 L12.7,3.2 L14.4,0.2 L12.8,1.2 C12.5,1.5 10.8,3.4 10.4,4.1 C9.9,4.8 8.4,7.8 8.4,7.8 L4.8,12.7 L2.6,13.7 C2.7,14.3 2.7,15 2.9,15.6 C3.1,16.4 3.4,17.2 3.7,18 C3.9,18.4 4,18.8 4.2,19.2 C4.6,19.7 4.6,19.7 5.2,19.7 C5.7,19.7 5.7,19.5 6,19.2 C6.3,19 6.7,18.8 7,18.7 C6.8,19.1 6.6,19.4 6.3,19.8 C6,20.2 5.9,20.2 5.4,20.2 C4.4,20.2 3.8,20.3 3.1,21.2 C2.8,21.6 2.7,22 2.7,22.5 C2.6,23 3.1,23.4 3.3,23.8 C3.6,24.2 3.4,25.7 3.4,26.2 C3.7,25.9 3.7,25.8 3.8,25.4 C3.8,25.3 3.8,24.7 3.9,24.6 C4.4,24.3 4.9,24.3 5.5,24.2 C5.5,24.5 5.6,24.7 5.4,24.9 C5.2,25.2 5.4,25.3 5.6,25.5 C5.5,25.6 5.2,25.6 4.9,26.2 C4.6,26.4 4.3,26.5 4.1,26.8 C3.8,27.2 3.6,27.4 3.6,28 C3.6,28.5 3.8,28.8 4,28.2 C4.2,27.7 4.6,27.2 5.2,27.4 C5.5,27.5 5.7,27.9 5.6,28.2 C5.4,28.9 4.3,28.9 5,29.8 C4.2,29.6 3.2,29.5 2.7,28.9 C2.6,28.7 1.7,29.1 1.5,29.2 C1,29.4 1.4,29.7 1.5,30.1 C1.7,31.1 2,32 2,33 C2,34.1 1.9,34.9 1.4,35.9 C1.2,36.3 1,36.6 0.7,37 C0.3,37.5 0.3,37.5 0.4,38.1 C0.5,39.1 0.5,40.2 0.5,41.2 C0.5,41.6 0.5,41.9 0.5,42.3 L7,44.7 L11.4,46.5 C12.6,44.9 14.9,41.7 15.2,41.1 C15.7,40.3 18.9,37.7 19.6,37.2 L21.9,35.6 C21.6,33.6 20.7,26.7 21,25.7 C21,25.6 21,24.8 21.1,24 Z" id="Shape"></path>
                </g>
                <g id="Hauraki" transform="translate(193.000000, 58.000000)" fill="#CCCCCC" fill-rule="nonzero">
                    <path d="M1.8,2.3 C2.4,3 3.3,3 3.8,3.7 C3.9,3.8 4.7,4.2 4.7,4.1 C4.7,4.7 4.5,4.6 4,4.6 C4.1,4.9 4.2,5.1 4.3,5.4 C4.3,5.4 4,5.7 4,5.8 C3.9,6.2 3.8,6.8 4.1,7.1 C4.4,7.4 5.1,7.5 4.6,8 C4.2,8.4 4.1,8.8 4.1,9.2 C4.4,9.1 4.6,9.1 4.7,8.8 C4.8,8.5 4.8,8.1 5.2,8.2 C5.5,8.3 5.8,9.1 5.5,9.3 C5,9.6 4.8,9.8 4.2,9.9 C3.5,9.9 4.7,10.4 4.9,10.5 C4.6,10.5 4.3,10.5 4,10.4 C4.1,10.8 4.5,10.8 4.8,10.9 C4.5,10.9 4.2,11 3.9,11 C3.5,11 3.5,11 3.5,11.4 C3.5,11.9 3.9,12.3 4.2,12.7 C4.5,13.1 4.9,13.6 5.2,14 C5.5,14.4 5.6,14.9 5.8,15.4 C6.1,16.4 6.1,17.3 6.1,18.3 C6.1,18.6 6.7,19.3 6.9,19.6 C7.1,20 7.2,20.4 7.5,20.8 C7.1,20.6 6.9,20.4 6.6,20.7 C6.3,21 6.2,21.3 6.1,21.6 C5.6,21.3 5.4,21.3 4.9,21.6 C4.6,21.8 4.2,21.9 3.9,22 C3.5,22.1 2.6,21.7 2.3,21.4 C2.1,21.2 2,21 1.9,20.7 L0.9,22.6 L0.9,24.6 L2,26.9 C4.2,28.6 6.9,30.6 6.9,30.6 C9.2,31.7 12.5,31.2 12.5,31.2 L12.8,31.2 L11.6,27.4 L12.2,24.9 L15.5,22 C15.5,21.9 15.4,21.9 15.3,21.8 C14.6,21.3 14.5,20.8 14.4,20 C14.7,20.4 14.9,20.7 15.4,21 C15.4,20 15.3,19 15.3,17.9 C15.3,17.5 15.4,16.4 15.2,16.1 C14.8,15.5 14.4,16.4 14.1,16.7 C14.2,16.3 14.3,15.9 14.4,15.6 C14.5,15.2 14.4,15.2 14.2,14.8 C14,14.6 14.1,14 14.1,13.7 C14.1,13.4 14.2,13.4 14.6,13.4 C14.4,13 14.2,12.6 14,12.2 C13.9,11.9 13.5,11.5 13.6,10.7 C13.4,10.5 13.3,10.4 13.1,10.2 C12.8,9.9 12.5,10 12.1,10 C12.1,10.3 12.1,10.6 12.1,10.9 C11.8,10.6 11.5,10.4 11.1,10.1 C10.7,10.7 10.8,11.3 10.9,12.1 C10.4,11.8 10.3,11.8 10.2,11.3 C10.1,10.5 10.3,11.1 10.6,10.7 C10.8,10.5 10.6,10 10.7,9.7 C10.9,9.3 11.3,9.4 11.5,9.1 C11.6,8.9 11.5,8.3 11.7,8.2 C12.1,8 12.4,7.8 12.7,7.6 C13,7.4 13.4,7.6 13.3,7.1 C13.2,6.9 12.8,6.6 12.6,6.5 C12.2,6.2 12.2,6.5 11.8,6.6 C11.4,6.7 11.1,6.8 10.7,7 C10.4,7.1 9.9,7.1 9.8,7.4 C9.6,7.8 9.5,8 9.1,8.2 C8.2,8.7 8.4,7.2 8.4,6.8 C8.4,6.7 7.9,6.2 7.8,6.1 C7.4,5.9 7.3,6.3 7,5.8 C7.2,5.8 7.5,5.7 7.7,5.7 C7.5,5.4 7.3,5.2 7.5,4.9 C7.7,4.6 7.5,4.4 7.4,4.1 C7.3,3.7 6.4,3.8 6,3.6 C6.1,3.2 6.1,3 6.2,2.7 C6.3,2.2 6.4,2 6,1.8 C5.8,1.7 5.4,1.1 5.3,1.1 C4.8,1.1 4.6,1 4.7,1.6 C4.3,1.5 4.2,1.4 3.7,1.4 C3.6,0.9 3.5,0.7 3.1,0.3 C2.7,6.41015019e-14 2.5,6.41015019e-14 2,0.1 C1.4,0.3 1.4,0.5 1.4,1.1 C1.3,1.4 1.5,1.9 1.8,2.3 Z" id="Shape"></path>
                </g>
                <g id="T훮maki" transform="translate(166.000000, 49.000000)" fill="#CCCCCC" fill-rule="nonzero">
                    <path d="M12.2,0.9 L8.2,2.9 C8.3,3 8.3,3.1 8.3,3.2 C8.3,3.5 7.7,3.7 7.4,3.8 C7,4 7.3,4.3 7,4.5 C6.8,4.7 6.4,4.5 5.8,4.9 C5.6,5 5.8,5.3 5.5,5.4 C5.4,5.4 5.2,5.4 4.9,5.8 C4.7,5.8 4.6,5.8 4.5,5.8 C4,6.4 3.5,7 3.3,7.4 C3.4,7.6 3.6,7.7 3.8,7.6 C4.1,7.5 4,6.9 4,6.7 C4.4,7.3 4.9,7.8 5.6,7.9 C5.6,7.6 5.7,7.4 5.6,7.1 C5.8,7.1 6.3,7.2 6.2,6.8 C6.1,6.5 6,6.2 5.8,5.9 C6.2,6.2 6.5,6.4 7.1,7.1 C7.1,7.3 6.9,7.8 6.9,8 C7,8.7 6.6,9 6.6,9.7 C6.6,10.3 7.1,10.8 6.9,11.7 C7,11.8 7.1,12 7.2,12.1 C7.3,12.2 7.7,12.3 7.8,12.4 C7.3,12.5 6.6,12.3 6.6,12.9 C6.6,13 7.2,13.1 7.4,13.5 C6.5,13.5 7.1,13.7 7.2,14.2 C7.2,14.5 7.7,14.9 7.9,15.2 C7.5,14.9 7,14.6 6.6,14.3 C6.4,14.1 6.2,14.1 5.9,14.1 C5.8,14.1 5.8,13.6 5.4,13.5 C5.4,12.7 5.2,12.2 4.4,11.9 C3.9,11.7 4,12.1 3.9,11.4 C3.9,11.1 3.6,10.9 3.5,10.7 C3.2,10.2 3.1,9.6 2.7,9.1 C2,8.4 1.8,10 1.8,10.4 C1.4,9.9 1.4,9.3 1.3,8.6 C0.5,9.1 0.7,10.1 0.8,10.9 C0.9,11.5 2.1,12.5 2.5,13 C3.7,14.4 4.6,16.1 5.6,17.7 C6.7,19.4 7.4,21.3 8.2,23.2 C8.4,23.7 8.5,24.1 8.6,24.6 C8.8,25.3 8.9,25.3 9.5,25.6 C10.2,26 11.5,25 12,24.5 C12.6,23.9 13.3,23.1 14.2,23.1 C14.7,23.1 15.2,23 15.7,23 C16.5,23 16.5,22.9 16.6,23.6 C16.4,23.6 15.5,23.5 15.4,23.7 C15.2,24.1 14.9,24.4 15.1,24.8 C15.4,25.4 15.7,25.4 16.2,25.3 C16.8,25.3 16.6,24.9 17,25.5 C15.9,25.7 18.1,26.5 18.3,26.3 C18.7,26.3 19,26.3 19.4,26.3 C19.1,26.5 18.9,26.7 18.6,26.7 C18.3,26.7 18,26.6 17.6,26.7 C17.1,26.7 17.1,26.7 16.8,27.1 C16.6,27.4 16.4,27.4 16,27.4 C15.4,27.5 15.1,27.8 14.7,28.3 C14.3,28.8 13.7,29.2 13.9,29.8 C14,30 14.4,31.6 14.2,31.4 C13.8,31 13.6,30.9 13.4,30.3 C13.3,30 13.2,29.8 13,29.5 C12.8,29.2 12.5,29.1 12.2,28.9 C11.9,28.6 11.7,28.3 11.4,28 C11,27.6 10.4,26.8 9.8,26.8 C10.5,28.9 11.5,30.8 12.6,32.7 C13.1,33.5 13.6,34.3 14.1,35.1 C14.3,35.4 14.3,35.5 14.6,35.4 C14.8,35.3 15.1,35.3 15.4,35.1 C15.8,34.9 16.1,34.4 16.4,34.1 C16.3,34.4 16.2,34.6 16.1,34.9 C16.5,34.9 16.9,34.9 17.2,34.9 C17.5,34.9 17.6,35.4 17.8,35.6 C17.6,35.5 17.2,36.3 17,36.6 C16.8,36.9 16.6,36.8 16.3,36.7 C16,36.7 15.6,36.3 15.4,36.5 C15.1,36.8 14.8,37.1 14.6,37.3 C14.5,37.4 14.5,38.2 14.5,38.3 C14.6,38.6 15,39 15.2,39.3 C15.6,39.8 15.7,40.2 15.9,40.7 L17.7,39.9 L21.1,35.3 C21.1,35.2 22.6,32.3 23.1,31.6 C23.6,30.8 25.6,28.6 25.6,28.5 L25.7,28.4 L27.9,27 C27.9,26.8 27.9,26.7 27.8,26.4 C27.6,25.7 27.4,25 27.2,24.3 C27,23.8 26.2,23.3 25.9,23 C25.8,22.9 25.2,22.6 25,22.6 C24.9,22.6 24.4,23.2 24.2,23 C23.8,22.6 23.9,22.6 23.3,22.9 C23,23 22.7,23 22.4,23.1 C22.4,22.8 22.3,22.6 22.3,22.3 C22.3,22.2 22.1,22.1 22.1,21.4 C21.8,21.3 21.5,21.2 21.2,21.2 C21,21.2 20,21 20.1,21.5 C20.3,22 20.4,22.2 20.2,22.7 C20.1,22.6 19.9,22.5 19.8,22.3 C19.7,22.5 19.6,22.8 19.6,23 C19.5,22.5 19.6,22.3 19.1,22.3 C19.5,22 19.5,21.3 19,21.1 C18.6,20.9 18.5,20.8 18.2,20.4 C18.1,21.1 18.1,21.6 17.5,22.1 C17.9,22.3 18,22.4 18.1,22.8 C18.2,23.2 17.6,23.1 17.3,23.1 C17.4,22.6 17.4,22.1 17,21.7 C16.8,21.5 16.3,21.6 16.2,21.4 C16.1,21.2 16,21 16,20.8 C16.4,20.9 16.9,21 17.3,21.1 C17.8,21.2 17.7,20.8 17.7,20.4 C17.7,20.4 16.7,20.4 16.6,20.3 C15.9,20.2 16.6,19.9 16.2,19.5 C15.9,19.2 15.5,18.9 15.3,18.5 C15.1,18.2 15,17.7 14.9,17.3 C14.7,16.6 14.6,15.8 14.5,15.1 C14.3,15.1 14.1,15.2 14,15.2 C14,15.1 14,14.7 14.3,14.5 C14.5,14.1 14.6,14 15,13.8 C15.3,13.7 15.7,13.7 16,13.6 C16.3,13.5 16.3,13.2 16.4,12.9 C16,13 15.6,13 15.3,13.2 C15.2,13.3 14.6,13.7 14.5,13.7 C14.2,13.5 13.7,13.4 13.6,13.1 C13.5,12.8 13.5,12.5 13.4,12.1 C13.4,11.6 13.4,11.4 13.5,10.9 C13.6,10.7 13.2,10.1 13.2,9.9 C13,9.3 12.9,8.6 12.8,8 C13.6,7.5 13.9,9.7 14,10.1 C14.3,9.5 14.6,8.9 14.8,8.3 C14.4,8.2 13.9,8.2 13.8,7.6 C13.6,6.9 14.1,7 14.6,6.9 C15,6.8 15.4,6.6 15.8,6.6 C16.2,6.6 16.6,6.4 17,6.2 C16.7,5.9 16.1,6 15.7,5.8 C15.5,5.7 15.2,5.6 15,5.4 C14.8,5.2 14.8,5 14.5,5.1 C14.5,5.4 14.6,5.6 14.6,5.9 C14.2,5.4 13.9,5.3 14.3,4.8 C14.5,4.5 15.1,4.6 15.2,4.3 C15.3,4.1 15.9,3.5 15.3,3.3 C14.8,3.2 14.5,3.2 14.1,2.9 C13.6,2.5 12.8,1.7 12.2,0.9 Z" id="Shape"></path>
                </g>
                <g id="Te_Tai_Tokerau" transform="translate(128.000000, 0.000000)" fill="#CCCCCC" fill-rule="nonzero">
                    <path d="M35.3,54.4 C35.4,54.9 35.5,56.9 36.3,56.9 C37.4,56.8 38.1,56.9 39,56.3 C39.1,56.2 39,55.1 39,55 C38.8,54.5 38.3,54.4 37.9,54.2 C38.5,53.7 38.3,53.5 37.8,53.1 C37.3,52.6 37.1,52.4 36.3,52.4 C36.8,51.7 35.8,51 35.3,50.6 C34.8,50.1 34.4,49.5 33.9,49.1 C33.3,48.6 32.7,48.1 32.3,47.3 C32.1,46.8 31.6,45.7 32.3,45.4 C32.9,46.3 33.4,47.3 34,48.2 C34.3,48.7 34.5,49.2 34.9,49.5 C35.1,49.6 36,50.5 36.2,50.5 C36.4,50.4 36.9,50.1 37.1,50.1 C37.3,50.1 37.5,50.5 37.6,50.7 C37.9,51.2 38.3,51.4 38.8,51.8 C39.3,52.3 39.5,52.4 40.2,52.6 C40.6,52.7 41.1,52 41.3,51.7 C41,51.6 40.7,51.5 40.3,51.4 C39.8,51.3 39.7,51.2 39.3,50.7 C38.8,50.1 39,49.4 39.6,49.1 C39.6,49 39.7,48.6 39.8,48.5 C39.9,48.5 40.4,48.4 40.5,48.5 C40.8,48.8 39.9,49.2 39.9,49.5 C39.9,50.1 40.3,50.1 40.8,50.1 C41.5,50 41.5,49.9 41.6,50.6 C41.4,50.6 41.2,50.6 41,50.6 C41.4,51 41.4,51 42,50.8 C42.3,50.7 42.6,50.9 42.9,51 C43,50.1 43,49.3 42.9,48.4 C43,48.5 43.7,49.2 43.7,49.2 C44.2,49 44.2,49.3 44.4,49.7 C44,49.7 43.5,49.5 43.6,50.1 C43.6,50.6 43.7,50.9 43.3,51.2 C43.2,51.3 42.3,51.7 42.3,51.5 C42.1,52 42.3,52.2 42.6,52.6 C42.1,53 41.8,52.1 41.4,52.5 C41.3,52.5 41.2,53.2 41.2,53.3 C41.3,53.4 41.7,53.6 41.8,53.6 C41.8,53.6 41.8,53.6 41.8,53.6 C42.4,52.9 43.2,52.2 44,51.6 L49.4,48.9 C49.2,48.6 49,48.2 48.8,47.8 C48.6,47.4 48.5,47 48.3,46.6 C48,46 47.8,46.1 47.1,46.1 C46.3,46.1 45.9,45 45.6,44.5 C45,43.7 44.9,43 45,42 C45,41.6 45.3,41.3 45.4,41 C45.6,40.5 45.7,40.3 45.7,39.8 C45.9,39.9 46.3,39.9 46.4,40.1 C46.5,40.2 46.5,40.7 46.6,40.7 C47.2,40.7 47.5,40.8 48,40.4 C47.5,39.8 47,39.3 47,38.4 C47,38 47,37.6 46.9,37.2 C46.9,36.9 45.8,37.2 45.7,37.3 C46.1,37 46.4,36.9 46.2,36.5 C46.1,36.2 45.8,35.9 45.8,35.6 C45.8,35 45.6,34 46.5,34.3 C46.5,33.7 46.5,33 46.2,32.4 C46,32 45.9,31.8 45.5,31.9 C45.2,31.9 45,32 44.9,31.7 C44.5,31.1 44.8,30.6 44.5,29.9 C44.2,29.3 43.8,28.9 43.6,28.2 C43.3,28.3 42.9,28.5 42.7,28.3 C42.4,28 42,27.8 41.8,27.4 C41.6,26.9 41.6,26.7 41.2,26.3 C41,26.1 40.8,25.7 40.6,25.4 C41.1,25.6 41.7,25.9 42,25.3 C41.3,25.1 40.9,24.8 40.6,24.2 C40.4,23.8 40.1,23.2 40.7,23.1 C40.2,22.8 40.4,22.5 40.5,22 C40.6,21.4 40.8,21.4 41.1,20.8 C41,21 40.1,21.1 40.2,21.6 C40.1,21.6 40.1,21.6 40.1,22.2 C39.4,22.3 38.7,22.3 39.2,23.1 C39,23.1 38.3,22.9 38.1,23 C37.7,23.3 38.1,23.6 38.3,23.8 C37.8,23.9 37.5,23.9 37,23.7 C36.6,23.5 36.2,23.1 35.8,23 C35.9,23.2 36.1,23.8 36,24.2 C36.1,24.6 36.1,24.7 36.5,24.7 C36.8,24.7 37.1,24.7 37.4,24.7 C37.8,24.7 38.9,25.1 38.6,25.6 C38.2,25.2 37.8,25.1 37.2,25.3 C37,25.4 36.8,25.6 36.5,25.6 C36.3,25.6 36,25.6 35.8,25.6 C35.8,25.4 35.9,24.6 35.8,24.5 C35.5,24.2 35.2,24.1 34.8,23.9 C35.5,23.4 34.9,22.9 34.6,22.4 C34.3,22 33.1,22.3 32.7,22.5 C33.2,21.9 33.6,21.7 34.3,21.9 C34.1,21.4 33.3,20.6 32.8,21 C33,20.4 33.6,20 34.3,20.6 C34.4,20.7 34.6,20.9 34.7,21 C34.9,21.2 34.6,21.5 35,21.6 C35.1,21.3 35.2,21 35.5,21 C35.7,21 36,20.9 36.2,20.9 C36.1,20.5 35.1,19.7 34.7,19.6 C34,19.4 33.4,19.9 32.7,19.7 C32,19.5 31.5,19 31.4,18.1 C31.4,17.8 31.4,17.2 31.1,17 C30.9,16.8 30.3,16.9 30.1,16.9 C29.7,16.9 29.5,16.6 29.1,16.5 C28.8,16.4 28.4,16.5 28.1,16.6 C27.7,16.6 27.4,16.7 27.1,16.5 C26.9,16.4 26.3,16.5 26.2,16.4 C26,16.1 25.8,15.7 25.4,15.4 C25,15.2 24.9,15.8 24.6,15.6 C24.4,15.5 23.8,14.9 23.7,15 C23.4,15.1 23.1,15.1 22.8,15.1 C22.9,14.5 22.8,14.6 22.3,14.2 C22.2,14.8 21.8,15.1 21.8,15.7 C21.8,16.4 21.5,16.6 20.8,16.6 C19.5,16.6 18.4,16.3 18,14.9 C17.9,14.5 17.6,13.6 18.3,13.5 C18.6,13.5 18.9,13.5 19.2,13.3 C19.4,13.1 19.7,13.3 19.9,13 C20,12.7 19.9,12.5 19.7,12.3 C19.4,12 19.3,12.1 18.9,12.1 C18.7,12.1 18.7,10.9 18.2,10.8 C18.1,11.4 18.2,12.3 17.7,12.7 C17.3,13.1 16.5,13.3 15.9,13.2 C15.9,13.7 16.1,14 16.3,14.5 C16.5,14.9 16.9,15.6 16.6,16 C16.5,16.1 16.3,16 16,16.4 C15.8,16.6 15.7,16.6 15.5,16.6 C14.9,16.6 14.9,16.2 14.8,15.6 C14.7,15.1 14.8,15.4 15.1,15.1 C15.2,15 15.4,14.7 15.5,14.6 C15.7,14 15.3,13.9 14.8,13.8 C14.3,13.7 13.8,13.5 13.4,13.3 C12.9,13.1 12.8,12.9 12.9,12.3 C12.3,12.3 12,12.3 11.7,11.8 C11.4,11.4 11.2,10.9 10.9,10.5 C11.2,10.7 11.6,10.9 11.8,11.1 C12,11.4 12.1,11.7 12.4,12 C12.6,12.1 13.2,11.9 13,11.6 C12.8,11.3 12.6,11 12.4,10.7 C12,10.2 11.5,9.9 11,9.5 C10.4,9 10,8.4 9.5,7.7 C9.1,7.2 8.9,6.5 8.8,5.9 C8.8,5.5 8.3,4.2 8.5,4 C8.8,3.8 8.5,3.5 8.6,3.2 C8.7,2.9 8.8,2.5 8.8,2.2 C8.8,1.4 8.9,0.9 9.8,0.7 C9.4,0.5 9.1,0.1 8.7,0.3 C8.5,0.4 8.1,1.2 8,1.1 C7.1,1.1 6.2,1 5.3,1 C5.1,1 5.1,1.8 4.8,1.9 C4.3,2.1 3.9,2.3 3.4,2.2 C2.6,2.2 1.8,1.9 1.1,1.7 C1,2.4 1,2.7 0.4,3.1 C0.6,3.2 1.1,3.2 1.2,3.3 C1.4,3.4 1.4,3.7 1.5,3.9 C1.6,4 1.8,4.4 2,4.4 C2.4,4.4 2.3,4.5 2.7,4.7 C3.7,5.3 4.4,6.2 5.2,7 C5.6,7.4 6,7.7 6.5,8.6 C6.6,8.8 6.8,8.9 6.9,9.1 C7.6,9.8 8.2,10.6 8.8,11.4 C10,12.9 11.1,14.4 12.2,16 C12.7,16.8 13.4,17.7 13.5,18.7 C13.6,19.3 13.6,19.7 13.4,20.3 C13.3,20.7 13.3,21.3 13.1,21.6 C12.8,22.2 12.3,22.2 11.8,22.2 C11.6,22.2 11.4,21.9 11.3,22 C11.2,22 10.9,22.4 10.8,22.5 C10.3,23 11.3,23.2 11.5,23.4 C11.8,23.7 12,24 12.4,24.3 C12.8,24.6 13,25.1 13.4,25.4 C13.6,25.6 14.3,25.4 14.5,26 C14.6,26.1 14.1,26.6 14.4,27.2 C14.5,27.4 15,26.9 15.1,27 C15.3,27.2 15.4,27 15.6,27.2 C15.7,27.3 15.2,28 15.3,28.1 C15.5,28.3 16.4,29.4 16.7,30.2 C16.8,30.4 17.6,31.1 17.7,31.3 C17.7,31.3 17.5,30.7 17.6,30.2 C17.6,30 17.4,29.5 17.5,29.4 C17.8,29.2 18.1,29.8 18.4,29.6 C18.7,29.4 19.7,29 19.9,29.4 C20.5,29.4 20.7,30.6 20.7,30.7 C21,31.1 18.6,31 19,31.3 C19.2,31.5 18.8,32.4 18.8,32.6 C18.8,32.8 19.1,32.9 19.2,33.1 C19.9,33.8 20.4,34.6 21,35.4 C21.6,36.3 22.4,37 23.1,37.9 C24.2,39.3 25.4,40.6 26.6,42 C27.9,43.5 29,45.2 30.3,46.7 C31.5,48.2 32.9,49.7 33.9,51.4 C34.4,52.6 35.1,53.5 35.3,54.4 Z" id="Shape"></path>
                </g>
            </g>
            <g id="Te_Tau_Ihu---Active" transform="translate(124.000000, 173.000000)" fill="#DEAA22" fill-rule="nonzero">
                <path d="M55.5,20.8 C55.2,21.2 55,21.6 54.6,21.8 C54.5,21.9 53.3,22.1 53.2,22.2 C52.8,22.9 54.4,23 54.7,22.5 C54.7,23.6 53.8,23.4 53.1,23.8 C52.6,24 52.4,24.5 51.9,24.8 C51.3,25.1 52.1,25.7 51.4,25.9 C50.9,26.1 50.7,26.2 50.1,26.2 C49.4,26.2 49.8,25.9 49.1,25.7 C48.5,25.5 47.6,26.9 47.4,25.9 C47.2,26.1 46.7,26.8 46.4,26.9 C46.1,26.9 45.2,26.5 44.9,26.4 C44.6,26.3 44.1,27.2 43.7,26.9 C43.2,26.5 44.4,26.2 44.6,26.1 C45.1,26 45.4,25.7 45.8,25.4 C46,25.3 46.7,25.8 46.8,25.3 C46.9,24.8 47.3,25.2 47.7,25 C48.2,24.8 48.3,24.1 48.8,24.8 C48.8,24.6 48.9,24.5 49,24.4 C49.6,24.9 49.6,24.2 49.9,23.8 C50.1,24 50.3,24.1 50.6,24.2 C50.7,23.8 50.9,22.8 50.4,22.5 C49.5,22.1 49.9,21.7 50.2,21 C50.3,21.3 50.7,23 51.2,22.3 C51.4,22.1 51.2,22.1 51,21.9 C50.7,21.5 51.2,21.7 51.2,21.7 C51.3,21.7 51.6,21.7 51.7,21.8 C51.9,21.8 51.8,21.5 51.9,21.4 C52,21.3 51.8,21.1 51.9,21 C52,20.8 52.2,20.6 52.4,20.4 C52.7,20.1 52.6,19.6 52.8,19.3 C53,19.1 53.7,18.9 53.7,18.7 C53.8,18.1 53.9,17.6 53.9,17 C53.2,17.6 53.7,18.3 52.9,18.8 C52.6,18.9 52.2,19 52,19.2 C51.8,19.4 51.7,20 51.4,20 C51.2,19.9 50.2,19.8 50.3,19.3 C50.4,18.9 51.1,19.1 51.1,18.8 C51,18 52.2,18 51.7,17 C51.5,17.4 51.1,18.3 50.4,18 C49.8,17.7 50.6,16.7 49.7,16.8 C50.1,17.2 49.7,18 49.6,18.6 C49.3,18.2 49.1,17.8 48.7,17.6 C48.7,18.2 48.6,18.7 48.6,19.3 C48.3,18.7 47.9,18.2 48.1,17.6 C48.3,17 48.3,16.5 48.4,15.9 C47.2,16.1 47.6,16.8 47.5,17.8 C46.3,17.7 46.8,17.5 46.6,16.5 C46.6,17 46.3,17.1 45.9,17.2 C45.5,17.3 45.6,17.6 45.4,17.9 C45.3,18.1 44.7,18.5 45,18.7 C45.2,18.9 45.6,19.2 45.9,19.1 C46.3,19 46.9,18 47.4,18.5 C48.3,19.4 46.6,19.5 46.4,19.8 C46.4,19.8 47.3,21.2 47.4,21.4 C47,21.1 46.6,20.7 46.3,21.2 C46.2,21.4 46.1,22.1 45.8,21.9 C45.6,21.8 45.4,21.9 45.3,22 C45.4,21.3 45.4,20.7 45.9,20.2 C45.5,20.3 44.6,20.3 44.6,20.9 C44.6,21.1 44.7,21.2 44.5,21.3 C44.2,21.5 44.4,21.7 44.3,21.8 C43.9,22.1 43.2,21.8 43.1,22.4 C43.1,22.6 43.5,23.1 43.5,23.5 C43.5,23.9 45.2,23.6 45.5,23.5 C46,23.5 46,23.8 46.3,23.2 C46.5,22.9 47,22.8 47.4,22.9 C47.3,23 47.3,23.2 47.2,23.4 C47.8,23.4 48.4,23.4 49.1,23.3 C48.3,24.1 47.2,24.2 46.1,24.4 C45.7,24.5 42.4,24.6 43.8,25.3 C43.3,25.6 42.2,25.6 41.9,26 C42.2,26.1 42.5,26.4 42.7,26.7 C41.7,26.7 40.7,26.4 39.6,26.3 C40.2,26.2 40.7,25.9 41.2,25.6 C41.4,25.5 41.9,25.5 42.1,25.4 C42.3,25.3 42.4,24.8 42.5,24.6 C42.6,24.2 43,23.2 42.5,22.9 C42.1,22.6 41,22.9 40.9,23.3 C40.9,23.1 40.8,22.2 41,22.2 C41.3,22.1 41.9,22.4 42,22.1 C42.2,21.6 42.7,22.3 42.7,21.6 C42.7,21.5 43.4,21.4 43.6,21.1 C42.9,20.7 43.5,20.4 44,20.4 C44.4,20.4 44.4,19.8 45.1,19.8 C44.4,19.6 42.8,19 42.2,19.6 C41.5,20.3 41.5,21.3 40.3,21.1 C41,20.5 41,20.1 41,19.2 C41,19 41.1,18.9 41.3,18.7 C41.6,18.5 41.1,18.5 41.2,18.3 C41.4,17.9 41.5,17.7 42,17.7 C42.1,19.3 43.8,17.6 44.5,17.2 C44.3,17.1 44.1,16.9 43.9,16.8 C44.4,16.5 45.8,16.7 45.1,15.8 C45.6,15.9 45.8,15.7 45.6,15.3 C46.2,15.2 46.7,16.5 46.7,15.2 C46.7,14.9 46.2,14.2 45.8,14.5 C45.3,14.8 44.2,15.2 44.1,15.8 C44,16.7 43.5,16.7 42.6,16.8 C42.7,16.3 42.7,15.8 42.7,15.3 C42.2,15.6 42.1,16.5 41.7,16.7 C41.1,17 40.4,17.1 39.8,17.5 C39.1,18 38.7,17.8 38.6,18.8 C38.5,19.7 39.4,19.1 39.7,18.8 C40.5,19.4 39.1,19.7 38.7,19.9 C38.5,20 37.5,21.2 37.4,20.6 C37.4,20.2 37.5,19.2 36.9,19 C36.5,18.9 34.9,20.4 34.9,20.6 C34.9,20.6 34.9,20.5 34.9,20.5 C34.4,20.9 34.4,21.5 34,21.9 C33.6,22.3 32.2,23.1 32.6,21.9 C31.9,22.4 31,22.9 30.4,23.4 C29.9,23.9 30,24.4 29.6,24.8 C28.7,25.8 27.3,25.9 27.2,27.3 C26,27.1 25.1,26.2 24.1,25.5 C24.4,25.4 24.7,25.2 25,25.1 C24.4,24.2 23.8,23.3 23.3,22.4 C22.8,21.5 22.7,20.4 22.6,19.4 C22.4,18.3 22.3,17.5 23,16.6 C23.4,16 23.3,15.5 23.4,14.8 C23.4,14.1 23.7,13.4 23.8,12.7 C23.3,12.8 22.9,12.9 22.3,13 C22.7,12.3 22.7,11.9 22.7,11.2 C22.7,10.6 21.9,10.2 21.4,10.6 C20.3,11.3 19.5,11.7 18.1,11.2 C17,10.8 16.3,9.7 15.5,8.8 C15.4,8.7 14.8,8.3 14.7,8.2 C14.7,8 15.1,7.8 15,7.5 C14.8,6.9 14.6,6.3 14.5,5.6 C15.3,5.8 15.1,4 15.4,3.5 C15.8,2.5 16.3,1.8 17.4,1.8 C18.5,1.8 19.4,1.9 20.5,2.2 C21.1,2.4 22.5,3.5 22.9,3.1 C23.8,2.3 21.6,1.7 21.1,1.5 C20.2,1.1 19.5,0.8 18.4,1 C16.9,1.2 13.1,0.6 12.7,2.6 C12.9,2.6 13.5,2.5 13.6,2.6 C13.6,2.6 13.6,3.5 13.6,3.6 C13,4.3 12.2,3.1 12.2,4.3 C12.2,4.9 12.1,5.6 11.4,5.7 C10.6,5.9 10.9,4.8 10.9,4.3 C9.7,5.3 8.3,5.9 7.1,6.9 C6.5,7.4 5.7,7.6 5.2,8.1 C5,8.3 4.8,8.8 4.6,9.1 C4.4,9.3 3.7,9.3 3.3,9.3 C2.9,9.3 2.4,10.6 2.2,10.9 C1.7,11.5 1,12.1 0.8,12.8 C0.7,13 0.7,13.1 0.7,13.3 L3.5,16.3 L5.7,20.5 L7.2,25.3 L9.9,31 L10.9,33.8 L12.6,37 L14.7,39.8 L17.7,40 L20.7,39.8 L24.8,36.3 L29.6,34.8 L33.4,34.3 L39.9,33.3 L43.2,33.3 L47.1,33.6 C47,33.3 46.9,33.1 46.9,32.8 C46.9,32.8 46.9,32.8 46.9,32.8 C46.9,32.7 46.9,32.6 46.9,32.5 C46.9,32.5 46.9,32.4 46.9,32.4 C46.9,32.3 46.9,32.2 46.9,32.1 C46.9,32.1 46.9,32 46.9,32 C46.9,31.9 46.9,31.8 46.9,31.7 C46.9,31.6 46.9,31.6 46.9,31.5 C46.9,31.4 46.9,31.3 47,31.2 C47,31.1 47,31.1 47,31 C47.1,30.8 47.1,30.5 47.2,30.3 C47.3,30.4 47.5,30.4 47.6,30.5 C47.4,29.6 49.6,26.3 50.3,27.8 C50,28.1 48.8,28.7 49.1,29.1 C49.4,29.5 50.2,28.9 50.5,28.6 C50.7,28.4 51,28.4 51.3,28.3 C51.7,28.2 51.6,27.7 51.7,27.5 C52.1,26.9 52.9,26.7 52.9,25.9 C52.9,25.6 53.6,24.8 53.9,24.7 C54.3,24.5 55.2,24.7 55.3,24.2 C55.1,23 55.6,22.1 55.5,20.8 Z" id="Shape"></path>
            </g>
        </g>
    </g>
</svg>