<?xml version="1.0" encoding="UTF-8"?>
<svg width="29px" height="26px" viewBox="0 0 29 26" version="1.1" xmlns="http://www.w3.org/2000/svg" xmlns:xlink="http://www.w3.org/1999/xlink">
    <!-- Generator: Sketch 49.3 (51167) - http://www.bohemiancoding.com/sketch -->
    <title>Group</title>
    <desc>Created with Sketch.</desc>
    <defs></defs>
    <g id="Symbols" stroke="none" stroke-width="1" fill="none" fill-rule="evenodd">
        <g id="chat-active" transform="translate(-36.000000, -26.000000)" fill="#DEAA22">
            <g id="Group" transform="translate(36.000000, 26.000000)">
                <path d="M24.6420793,2.00661602 C24.6420793,0.898392596 23.7505266,0 22.6464549,0 L1.99645092,0 C0.894297954,0 0.000789866323,0.896599313 0.000744939545,1.99785487 L8.1504407e-05,18.2601304 C3.6490766e-05,19.3635152 0.898244302,20.2579853 1.99330339,20.2579853 L6.08758615,20.2579853 L6.08758615,24.8258987 C6.08758615,25.9354608 6.75606482,26.239678 7.58223922,25.5039939 L13.4735158,20.2579853 L14.0181423,20.2579853 L14.0181423,22.4133605 C14.0181423,23.5228996 14.9060242,24.4223587 16.0131517,24.4223587 L26.930529,24.4223587 C28.0323422,24.4223587 28.9255383,23.5248756 28.9255383,22.4213651 L28.9255383,11.3547529 C28.9255383,10.2496346 28.0380029,9.35375921 26.9342889,9.35375921 L24.6420793,9.35375921 L24.6420793,2.00661602 Z M9.31363391,20.6222056 C8.90120242,20.9894578 8.56686064,20.8394222 8.56686064,20.2835468 L8.56686064,17.7518428 L2.47925734,17.7518428 L2.48008378,2.50614251 L22.1627284,2.50614251 L22.1627284,9.35375921 L16.0105005,9.35375921 C14.9101283,9.35375921 14.0181003,10.2525013 14.0181003,11.3439878 L14.0181003,17.7518428 L12.5371086,17.7518428 L9.31363391,20.6222056 Z M16.4974392,11.8599017 L26.4461995,11.8599017 L26.4461995,21.9162162 L16.4974392,21.9162162 L16.4974392,11.8599017 Z" id="Fill-1"></path>
                <circle id="Oval" cx="20" cy="17" r="1"></circle>
                <circle id="Oval-Copy" cx="24" cy="17" r="1"></circle>
            </g>
        </g>
    </g>
</svg>