<?xml version="1.0" encoding="UTF-8"?>
<svg width="15px" height="15px" viewBox="0 0 15 15" version="1.1" xmlns="http://www.w3.org/2000/svg" xmlns:xlink="http://www.w3.org/1999/xlink">
    <!-- Generator: Sketch 49.3 (51167) - http://www.bohemiancoding.com/sketch -->
    <title>Shape Copy</title>
    <desc>Created with Sketch.</desc>
    <defs></defs>
    <g id="Symbols" stroke="none" stroke-width="1" fill="none" fill-rule="evenodd">
        <g id="Close-hover/active" fill="#DEAA22" fill-rule="nonzero">
            <path d="M14.25,0.75 L14.25,0.75 C13.8357864,0.335786438 13.1642136,0.335786438 12.75,0.75 L7.5,6 L2.20710678,0.707106781 C1.81658249,0.316582489 1.18341751,0.316582489 0.792893219,0.707106781 L0.707106781,0.792893219 C0.316582489,1.18341751 0.316582489,1.81658249 0.707106781,2.20710678 L6,7.5 L0.707106781,12.7928932 C0.316582489,13.1834175 0.316582489,13.8165825 0.707106781,14.2071068 L0.792893219,14.2928932 C1.18341751,14.6834175 1.81658249,14.6834175 2.20710678,14.2928932 L7.5,9 L12.7928932,14.2928932 C13.1834175,14.6834175 13.8165825,14.6834175 14.2071068,14.2928932 L14.2928932,14.2071068 C14.6834175,13.8165825 14.6834175,13.1834175 14.2928932,12.7928932 L9,7.5 L14.25,2.25 C14.6642136,1.83578644 14.6642136,1.16421356 14.25,0.75 Z" id="Shape-Copy"></path>
        </g>
    </g>
</svg>