<?xml version="1.0" encoding="UTF-8"?>
<svg width="21px" height="20px" viewBox="0 0 21 20" version="1.1" xmlns="http://www.w3.org/2000/svg" xmlns:xlink="http://www.w3.org/1999/xlink">
    <!-- Generator: Sketch 49.3 (51167) - http://www.bohemiancoding.com/sketch -->
    <title>Shape</title>
    <desc>Created with Sketch.</desc>
    <defs></defs>
    <g id="Symbols" stroke="none" stroke-width="1" fill="none" fill-rule="evenodd">
        <g id="edit-hover/active" fill="#DEAA22" fill-rule="nonzero">
            <path d="M18.9999651,10.0318952 L18.9999651,17.9999706 L1.99996514,17.9999706 L1.99996514,1.99999673 L10.0109863,1.99999673 L10.011056,0 L1.33333333,0 C0.597333333,0 0,0.596670049 0,1.33333116 L0,18.6666362 C0,19.4032973 0.597333333,19.9999673 1.33333333,19.9999673 L19.6666667,19.9999673 C20.4026667,19.9999673 21,19.4032973 21,18.6666362 L21,10.0318604 L18.9999651,10.0318952 Z M19.7944375,2.83243394 L17.1739144,0.211915097 C17.0314486,0.0694177177 16.8444663,0 16.657484,0 C16.4705016,0 16.2835511,0.0694177177 16.1410535,0.212551957 L6,10.352952 L6,14.0069351 L9.65398904,14.0069351 L19.7944057,3.86653503 C19.9375083,3.72340079 20.006958,3.5364506 20.006958,3.34950041 C20.0069898,3.16191335 19.9375402,2.97556818 19.7944375,2.83243394 Z M9.21799635,12.0484375 L8,12.0484375 L8,10.8304432 L16.8304576,2 L18.0484539,3.21799436 L9.21799635,12.0484375 Z" id="Shape"></path>
        </g>
    </g>
</svg>