<?xml version="1.0" encoding="UTF-8"?>
<svg width="20px" height="20px" viewBox="0 0 20 20" version="1.1" xmlns="http://www.w3.org/2000/svg" xmlns:xlink="http://www.w3.org/1999/xlink">
    <!-- Generator: Sketch 49.3 (51167) - http://www.bohemiancoding.com/sketch -->
    <title>menu</title>
    <desc>Created with Sketch.</desc>
    <defs></defs>
    <g id="Symbols" stroke="none" stroke-width="1" fill="none" fill-rule="evenodd">
        <g id="Calendar-hover/active" fill="#DEAA22" fill-rule="nonzero">
            <path d="M5.76535854,1.3147083 L5.76124923,1.3147083 L5.76124923,4.44535744 C5.76124923,5.168447 5.16950894,5.76006574 4.4462708,5.76006574 L1.31497843,5.76006574 C0.591740292,5.76006574 0,5.168447 0,4.44535744 L0,1.3147083 C0,0.591618735 0.591740292,0 1.31497843,0 L4.45038011,0 C5.17361825,0 5.76535854,0.591618735 5.76535854,1.3147083 Z M5.76535854,8.43467543 L5.76124923,8.43467543 L5.76124923,11.5653246 C5.76124923,12.2884141 5.16950894,12.8800329 4.4462708,12.8800329 L1.31497843,12.8800329 C0.591740292,12.8800329 0,12.2884141 0,11.5653246 L0,8.43467543 C0,7.71158587 0.591740292,7.11996713 1.31497843,7.11996713 L4.45038011,7.11996713 C5.17361825,7.11996713 5.76535854,7.71158587 5.76535854,8.43467543 Z M4.45038011,14.2358258 C5.17361825,14.2358258 5.76535854,14.8274445 5.76124923,15.5505341 L5.76124923,18.6811832 C5.76124923,19.4042728 5.16950894,19.9958915 4.4462708,19.9958915 L1.31497843,19.9958915 C0.591740292,19.9958915 0,19.4042728 0,18.6811832 L0,15.5505341 C0,14.8274445 0.591740292,14.2358258 1.31497843,14.2358258 L4.45038011,14.2358258 Z M7.12143004,11.5653246 L7.12143004,8.43467543 C7.12143004,7.71158587 7.71317033,7.11996713 8.43640847,7.11996713 L11.5677008,7.11996713 C12.290939,7.11996713 12.8826793,7.71158587 12.8826793,8.43467543 L12.8826793,11.5653246 C12.8826793,12.2884141 12.290939,12.8800329 11.5677008,12.8800329 L8.43640847,12.8800329 C7.71317033,12.8800329 7.12143004,12.2884141 7.12143004,11.5653246 Z M7.12143004,18.6852917 L7.12143004,15.5546426 C7.12143004,14.831553 7.71317033,14.2399343 8.43640847,14.2399343 L11.5677008,14.2399343 C12.290939,14.2399343 12.8826793,14.831553 12.8826793,15.5546426 L12.8826793,18.6852917 C12.8826793,19.4083813 12.290939,20 11.5677008,20 L8.43640847,20 C7.71317033,20 7.12143004,19.4083813 7.12143004,18.6852917 Z M14.2387508,11.5653246 L14.2387508,8.43467543 C14.2387508,7.71158587 14.8304911,7.11996713 15.5537292,7.11996713 L18.6850216,7.11996713 C19.4082597,7.11996713 20,7.71158587 20,8.43467543 L20,11.5653246 C20,12.2884141 19.4082597,12.8800329 18.6850216,12.8800329 L15.5537292,12.8800329 C14.8304911,12.8800329 14.2387508,12.2884141 14.2387508,11.5653246 Z M14.2387508,18.6852917 L14.2387508,15.5546426 C14.2387508,14.831553 14.8304911,14.2399343 15.5537292,14.2399343 L18.6850216,14.2399343 C19.4082597,14.2399343 20,14.831553 20,15.5546426 L20,18.6852917 C20,19.4083813 19.4082597,20 18.6850216,20 L15.5537292,20 C14.8304911,20 14.2387508,19.4083813 14.2387508,18.6852917 Z M7.12143004,1.3147083 C7.12143004,0.591618735 7.70906102,0 8.43640847,0 L11.5677008,0 C12.290939,0 12.8826793,0.591618735 12.8826793,1.3147083 L12.8826793,4.44535744 C12.8826793,5.168447 12.290939,5.76006574 11.5677008,5.76006574 L8.43640847,5.76006574 C7.71317033,5.76006574 7.12143004,5.168447 7.12143004,4.44535744 L7.12143004,1.3147083 Z M15.5537292,5.7641742 C14.8304911,5.7641742 14.2387508,5.17255546 14.2387508,4.44535744 L14.2387508,1.3147083 C14.2387508,0.591618735 14.8304911,0 15.5537292,0 L18.6850216,0 C19.4082597,0 20,0.591618735 20,1.3147083 L20,4.4494659 C20,5.17255546 19.4082597,5.7641742 18.6850216,5.7641742 L15.5537292,5.7641742 Z" id="menu"></path>
        </g>
    </g>
</svg>