<?xml version="1.0" encoding="UTF-8"?>
<svg width="18px" height="19px" viewBox="0 0 18 19" version="1.1" xmlns="http://www.w3.org/2000/svg" xmlns:xlink="http://www.w3.org/1999/xlink">
    <!-- Generator: Sketch 49.3 (51167) - http://www.bohemiancoding.com/sketch -->
    <title>noti copy</title>
    <desc>Created with Sketch.</desc>
    <defs></defs>
    <g id="Symbols" stroke="none" stroke-width="1" fill="none" fill-rule="evenodd">
        <g id="notification-none" fill="#7F8C8D">
            <g id="Group-11">
                <path d="M17.6029555,15.0376857 C14.7607952,13.3276857 14.9129045,7.771 14.9162476,7.68794286 C14.9162476,5.09417143 13.1466532,2.89614286 10.7229329,2.17577143 L10.7229329,1.67851429 C10.7229329,0.752942857 9.95012824,0 9.00014131,0 C8.05071156,0 7.27734977,0.752942857 7.27734977,1.67851429 L7.27734977,2.17577143 C4.85362945,2.89668571 3.08459221,5.09905714 3.08514938,7.71617143 C3.13919556,9.26982857 2.76365821,13.6143143 0.396769953,15.0376857 C0.0786218376,15.2287714 -0.0701444439,15.6022571 0.0318189625,15.9529429 C0.134339546,16.3030857 0.461959672,16.5446571 0.835825495,16.5446571 L5.83983289,16.5446571 C6.1702389,17.9484857 7.46010385,19 9.00014131,19 C10.5401788,19 11.8300437,17.9484857 12.1610069,16.5446571 L17.1639,16.5446571 C17.538323,16.5446571 17.8665003,16.3030857 17.9684637,15.9529429 C18.0698699,15.6022571 17.9211036,15.2287714 17.6029555,15.0376857 M8.25018096,14.9160857 L2.88958023,14.9160857 C4.88538854,12.1714 4.76336676,7.88391429 4.75612346,7.68794286 C4.75612346,5.40794286 6.65999756,3.553 9.00069849,3.553 C11.3408422,3.553 13.2447163,5.40794286 13.2452735,7.65971429 C13.237473,7.87957143 13.1148941,12.1708571 15.1112596,14.9160857 L8.25018096,14.9160857" id="noti-copy"></path>
            </g>
        </g>
    </g>
</svg>