<?xml version="1.0" encoding="UTF-8"?>
<svg width="30px" height="30px" viewBox="0 0 30 30" version="1.1" xmlns="http://www.w3.org/2000/svg" xmlns:xlink="http://www.w3.org/1999/xlink">
    <!-- Generator: Sketch 49.3 (51167) - http://www.bohemiancoding.com/sketch -->
    <title>Imported Layers Copy 2</title>
    <desc>Created with Sketch.</desc>
    <defs></defs>
    <g id="Symbols" stroke="none" stroke-width="1" fill="none" fill-rule="evenodd">
        <g id="search-active" transform="translate(-36.000000, -24.000000)" fill="#DEAA22">
            <path d="M60.8984418,47.0828571 C60.8512885,47.0348571 60.7895605,47.0142857 60.7372633,46.9748571 C65.3368532,41.4805714 65.0625067,33.2622857 59.8996492,28.1005714 C57.2547778,25.4562857 53.7379991,24 49.9974566,24 C46.256914,24 42.7401353,25.4562857 40.095264,28.1005714 C34.634912,33.5597143 34.634912,42.4431429 40.095264,47.9014286 C42.7401353,50.5465714 46.256914,52.0028571 49.9974566,52.0028571 C53.3187634,52.0028571 56.4600304,50.85 58.9745872,48.7414286 C59.0123099,48.7928571 59.0328859,48.8537143 59.0800392,48.9008571 L63.8039423,53.6237143 C64.0551408,53.8748571 64.3843565,54 64.7135723,54 C65.042788,54 65.3720038,53.8748571 65.6232023,53.6237143 C66.1255992,53.1214286 66.1255992,52.3071429 65.6232023,51.8057143 L60.8984418,47.0828571 Z M41.9136666,46.0834286 C37.4563939,41.6271429 37.4563939,34.3765714 41.9136666,29.9185714 C44.0724303,27.7602857 46.9436375,26.5714286 49.9974566,26.5714286 C53.0512756,26.5714286 55.9224828,27.7602857 58.0812466,29.9185714 C62.5385192,34.3765714 62.5385192,41.6271429 58.0812466,46.0834286 C55.9216255,48.2417143 53.0512756,49.4314286 49.9974566,49.4314286 C46.9436375,49.4314286 44.0724303,48.2417143 41.9136666,46.0834286 Z" id="Imported-Layers-Copy-2"></path>
        </g>
    </g>
</svg>